<svg width="600" height="540" viewBox="0 0 600 540" fill="none" xmlns="http://www.w3.org/2000/svg">
<g clip-path="url(#clip0)">
<path opacity="0.1" d="M351.879 91.2573C313.914 89.7632 277.75 75.8906 243.223 60.7098C208.695 45.5291 174.497 28.708 137.441 20.666C113.607 15.4929 86.3478 14.7624 67.1483 29.226C48.6645 43.1716 42.6929 67.1779 39.4842 89.4776C37.0674 106.252 35.6478 123.903 42.2706 139.609C46.8637 150.513 55.0233 159.677 60.6605 170.156C80.2941 206.494 66.421 251.306 45.1449 286.788C35.1727 303.436 23.5873 319.328 15.8911 337.032C8.19485 354.736 4.62831 375.05 11.3625 393.126C18.0439 411.056 33.9584 424.497 51.1928 433.96C86.207 453.185 127.451 458.684 167.698 461.798C256.762 468.698 346.295 465.71 435.593 462.722C468.642 461.613 501.832 460.49 534.342 454.706C552.397 451.492 571.034 446.399 584.144 434.087C600.78 418.461 604.904 391.997 593.759 372.407C575.052 339.542 523.366 331.381 510.273 296.105C503.082 276.694 510.473 255.072 520.926 237.062C543.358 198.439 580.953 164.551 582.936 120.404C584.297 90.0753 566.218 59.7137 538.272 45.363C508.983 30.2686 468.355 32.1811 446.756 57.0773C424.5 82.7306 385.398 92.5722 351.879 91.2573Z" fill="#00A3FF"/>
<path opacity="0.1" d="M462.641 114.68C462.641 114.68 452.933 91.8758 440.544 103.112C440.544 103.112 437.881 104.121 438.004 107.289C438.004 107.289 439.037 106.691 439.764 109.128C440.035 109.996 440.398 110.823 440.843 111.592C441.441 112.632 442.323 113.423 443.354 113.843C443.354 113.843 448.68 118.618 458.823 115.364C458.823 115.364 461.65 115.915 462.119 115.524L458.881 112.688C458.881 112.688 457.122 115.464 454.67 115.709C454.67 115.709 458.864 112.894 458.412 112.243C458.318 112.11 456.652 110.829 456.652 110.829C456.652 110.829 453.602 115.63 449.783 115.882C449.783 115.882 455.186 113.286 456.019 110.337L453.373 108.571C453.373 108.571 450.37 113.83 446.029 114.295C446.029 114.295 451.59 111.36 452.775 108.225L449.965 106.897C449.965 106.897 446.944 111.957 443.336 112.323C443.336 112.323 449.461 108.199 449.308 106.638C449.308 106.638 446.662 105.582 445.841 105.689C445.841 105.689 443.6 109.261 441.483 109.261C441.483 109.261 445.319 106.014 445.084 105.489C445.084 105.489 441.318 105.157 439.33 106.153C441.119 105.148 443.109 104.691 445.102 104.825C444.314 103.756 443.265 102.973 442.087 102.574C442.087 102.574 444.187 101.664 446.011 104.918C446.011 104.918 448.944 105.31 449.29 105.689C449.29 105.689 447.888 102.196 446.099 100.668C446.099 100.668 448.809 101.292 450.047 106.014L452.892 107.289C452.892 107.289 451.256 102.554 449.748 101.067C449.748 101.067 452.423 102.182 453.584 107.707L456.195 109.401C456.195 109.401 455.057 105.204 453.696 103.132C453.696 103.132 455.984 104.779 456.928 109.925L458.553 111.254C458.553 111.254 457.673 108.205 457.38 107.355C457.086 106.505 457.233 106.339 457.233 106.339C458.348 107.916 459.053 109.813 459.269 111.818C459.269 111.818 462.46 114.879 462.641 114.68Z" fill="#48BEFF"/>
<path opacity="0.1" d="M118.641 222.68C118.641 222.68 108.933 199.876 96.5441 211.112C96.5441 211.112 93.881 212.121 94.0041 215.289C94.0041 215.289 95.0366 214.691 95.764 217.128C96.0355 217.996 96.3978 218.823 96.8433 219.592C97.4413 220.632 98.3229 221.423 99.354 221.843C99.354 221.843 104.68 226.618 114.823 223.364C114.823 223.364 117.65 223.915 118.119 223.524L114.881 220.688C114.881 220.688 113.122 223.464 110.67 223.709C110.67 223.709 114.864 220.894 114.412 220.243C114.318 220.11 112.652 218.829 112.652 218.829C112.652 218.829 109.602 223.63 105.783 223.882C105.783 223.882 111.186 221.286 112.019 218.337L109.373 216.571C109.373 216.571 106.37 221.83 102.029 222.295C102.029 222.295 107.59 219.36 108.775 216.225L105.965 214.897C105.965 214.897 102.944 219.957 99.3364 220.323C99.3364 220.323 105.461 216.199 105.308 214.638C105.308 214.638 102.662 213.582 101.841 213.689C101.841 213.689 99.6003 217.261 97.4827 217.261C97.4827 217.261 101.319 214.014 101.084 213.489C101.084 213.489 97.3185 213.157 95.3299 214.153C97.1187 213.148 99.1086 212.691 101.102 212.825C100.314 211.756 99.2652 210.973 98.0869 210.574C98.0869 210.574 100.187 209.664 102.011 212.918C102.011 212.918 104.944 213.31 105.29 213.689C105.29 213.689 103.888 210.196 102.099 208.668C102.099 208.668 104.809 209.292 106.047 214.014L108.892 215.289C108.892 215.289 107.256 210.554 105.748 209.067C105.748 209.067 108.423 210.182 109.584 215.707L112.195 217.401C112.195 217.401 111.057 213.204 109.696 211.132C109.696 211.132 111.984 212.779 112.928 217.925L114.553 219.254C114.553 219.254 113.673 216.205 113.38 215.355C113.086 214.505 113.233 214.339 113.233 214.339C114.348 215.916 115.053 217.813 115.269 219.818C115.269 219.818 118.46 222.879 118.641 222.68Z" fill="#48BEFF"/>
<path opacity="0.1" d="M196.641 100.68C196.641 100.68 186.933 77.8758 174.544 89.112C174.544 89.112 171.881 90.1213 172.004 93.289C172.004 93.289 173.037 92.6913 173.764 95.1285C174.035 95.9956 174.398 96.8228 174.843 97.5922C175.441 98.6321 176.323 99.4225 177.354 99.8434C177.354 99.8434 182.68 104.618 192.823 101.364C192.823 101.364 195.65 101.915 196.119 101.524L192.881 98.6879C192.881 98.6879 191.122 101.464 188.67 101.709C188.67 101.709 192.864 98.8938 192.412 98.243C192.318 98.1102 190.652 96.8285 190.652 96.8285C190.652 96.8285 187.602 101.63 183.783 101.882C183.783 101.882 189.186 99.2856 190.019 96.3371L187.373 94.5707C187.373 94.5707 184.37 99.8301 180.029 100.295C180.029 100.295 185.59 97.3598 186.775 94.2253L183.965 92.8972C183.965 92.8972 180.944 97.9575 177.336 98.3227C177.336 98.3227 183.461 94.1988 183.308 92.6382C183.308 92.6382 180.662 91.5823 179.841 91.6886C179.841 91.6886 177.6 95.2613 175.483 95.2613C175.483 95.2613 179.319 92.014 179.084 91.4894C179.084 91.4894 175.318 91.1573 173.33 92.1534C175.119 91.1485 177.109 90.6906 179.102 90.8253C178.314 89.7563 177.265 88.9735 176.087 88.574C176.087 88.574 178.187 87.6643 180.011 90.9182C180.011 90.9182 182.944 91.31 183.29 91.6886C183.29 91.6886 181.888 88.1955 180.099 86.6682C180.099 86.6682 182.809 87.2924 184.047 92.014L186.892 93.289C186.892 93.289 185.256 88.5541 183.748 87.0666C183.748 87.0666 186.423 88.1823 187.584 93.7074L190.195 95.4007C190.195 95.4007 189.057 91.2038 187.696 89.1319C187.696 89.1319 189.984 90.7788 190.928 95.9254L192.553 97.2535C192.553 97.2535 191.673 94.2054 191.38 93.3554C191.086 92.5054 191.233 92.3394 191.233 92.3394C192.348 93.9157 193.053 95.813 193.269 97.818C193.269 97.818 196.46 100.879 196.641 100.68Z" fill="#48BEFF"/>
<path opacity="0.1" d="M192.641 194.68C192.641 194.68 182.933 171.876 170.544 183.112C170.544 183.112 167.881 184.121 168.004 187.289C168.004 187.289 169.037 186.691 169.764 189.128C170.035 189.996 170.398 190.823 170.843 191.592C171.441 192.632 172.323 193.423 173.354 193.843C173.354 193.843 178.68 198.618 188.823 195.364C188.823 195.364 191.65 195.915 192.119 195.524L188.881 192.688C188.881 192.688 187.122 195.464 184.67 195.709C184.67 195.709 188.864 192.894 188.412 192.243C188.318 192.11 186.652 190.829 186.652 190.829C186.652 190.829 183.602 195.63 179.783 195.882C179.783 195.882 185.186 193.286 186.019 190.337L183.373 188.571C183.373 188.571 180.37 193.83 176.029 194.295C176.029 194.295 181.59 191.36 182.775 188.225L179.965 186.897C179.965 186.897 176.944 191.957 173.336 192.323C173.336 192.323 179.461 188.199 179.308 186.638C179.308 186.638 176.662 185.582 175.841 185.689C175.841 185.689 173.6 189.261 171.483 189.261C171.483 189.261 175.319 186.014 175.084 185.489C175.084 185.489 171.318 185.157 169.33 186.153C171.119 185.148 173.109 184.691 175.102 184.825C174.314 183.756 173.265 182.973 172.087 182.574C172.087 182.574 174.187 181.664 176.011 184.918C176.011 184.918 178.944 185.31 179.29 185.689C179.29 185.689 177.888 182.196 176.099 180.668C176.099 180.668 178.809 181.292 180.047 186.014L182.892 187.289C182.892 187.289 181.256 182.554 179.748 181.067C179.748 181.067 182.423 182.182 183.584 187.707L186.195 189.401C186.195 189.401 185.057 185.204 183.696 183.132C183.696 183.132 185.984 184.779 186.928 189.925L188.553 191.254C188.553 191.254 187.673 188.205 187.38 187.355C187.086 186.505 187.233 186.339 187.233 186.339C188.348 187.916 189.053 189.813 189.269 191.818C189.269 191.818 192.46 194.879 192.641 194.68Z" fill="#48BEFF"/>
<path opacity="0.1" d="M105.898 48.0327C105.898 48.0327 83.6072 46.5119 86.2117 64.2162C86.2117 64.2162 85.6896 67.344 88.1944 68.7652C88.1944 68.7652 88.2355 67.437 90.4822 67.8952C91.2842 68.0475 92.0994 68.0921 92.9107 68.028C93.9943 67.9377 95.0232 67.4531 95.8437 66.6468C95.8437 66.6468 102.12 63.7115 104.555 52.1035C104.555 52.1035 106.361 49.5733 106.315 48.9225L102.549 50.7421C102.549 50.7421 103.833 53.8168 102.824 56.3735C102.824 56.3735 102.701 50.855 101.98 50.9812C101.833 50.9812 100.02 52.0503 100.02 52.0503C100.02 52.0503 102.232 57.4095 100.566 61.301C100.566 61.301 101.199 54.7 99.3281 52.4355L96.6767 54.1887C96.6767 54.1887 99.2636 59.7204 97.5096 64.2362C97.5096 64.2362 97.9613 57.3098 96.1194 54.6137L93.7202 56.7387C93.7202 56.7387 96.1487 62.1908 94.6646 65.9362C94.6646 65.9362 94.471 57.8743 93.1981 57.2634C93.1981 57.2634 91.0981 59.3618 90.7755 60.2251C90.7755 60.2251 92.4414 64.2096 91.409 66.2749C91.409 66.2749 90.7755 60.9025 90.2358 60.8759C90.2358 60.8759 88.1416 64.4354 87.9246 66.8526C88.0261 64.5981 88.6491 62.4134 89.7313 60.5173C88.5228 60.7765 87.4076 61.4297 86.5226 62.3967C86.5226 62.3967 86.8511 59.8798 90.2475 59.6607C90.2475 59.6607 91.978 56.9579 92.4414 56.7919C92.4414 56.7919 89.0626 56.4731 87.0095 57.5024C87.0095 57.5024 88.8162 55.1317 93.0573 56.1743L95.4038 53.9828C95.4038 53.9828 90.9514 53.3187 89.0684 54.0559C89.0684 54.0559 91.2389 51.9574 96.0431 53.4848L98.6242 51.7382C98.6242 51.7382 94.8289 50.8152 92.5705 51.1472C92.5705 51.1472 94.952 49.6929 99.3809 51.2667L101.229 50.3304C101.229 50.3304 98.4482 49.7128 97.6328 49.6132C96.8175 49.5136 96.7764 49.2612 96.7764 49.2612C98.5373 48.9296 100.345 49.1595 101.997 49.9253C101.997 49.9253 105.968 48.3116 105.898 48.0327Z" fill="#F92665"/>
<path d="M255.436 458.544L54.6537 457.435L34.7034 404.462L105.248 398.665L92.953 340.585L232.482 320.111L98.8718 267.53L110.674 264.355L325.517 304.034L313.685 394.674L296.774 444.486L255.436 458.544Z" fill="#F94865"/>
<path d="M369.988 416.336C369.988 416.336 356.689 434.711 367.248 462.489L261.073 514.619L250.884 517.036L246.191 493.794L249.329 464.461V448.431L369.988 416.336Z" fill="#D5D6DB"/>
<path d="M34.7034 404.462L181.659 374.134L376.381 409.25L255.436 458.544L34.7034 404.462Z" fill="#F94865"/>
<path d="M34.7034 404.462L181.659 374.134L376.381 409.25L255.436 458.544L34.7034 404.462Z" fill="#F94865"/>
<path d="M34.7034 404.455C34.7034 404.455 20.9593 433.934 36.7976 461.161L254.72 514.619C254.72 514.619 241.193 491.137 255.418 458.544L34.7034 404.455Z" fill="#F94865"/>
<path opacity="0.1" d="M34.7034 404.455C34.7034 404.455 20.9593 433.934 36.7976 461.161L254.72 514.619C254.72 514.619 241.193 491.137 255.418 458.544L34.7034 404.455Z" fill="black"/>
<path opacity="0.1" d="M41.1971 414.676C41.1971 414.676 33.3425 436.245 41.1971 450.204V414.676Z" fill="black"/>
<path d="M254.72 514.619L376.382 455.848C376.382 455.848 383.186 457.508 378.787 463.153C374.387 468.798 257.067 520.264 257.067 520.264L36.7976 461.161L254.72 514.619Z" fill="#F94865"/>
<path opacity="0.1" d="M254.72 514.619L376.382 455.848C376.382 455.848 383.186 457.508 378.787 463.153C374.387 468.798 257.067 520.264 257.067 520.264L36.7976 461.161L254.72 514.619Z" fill="black"/>
<path opacity="0.1" d="M244.748 464.481C244.748 464.481 233.016 480.419 244.748 504.326V464.481Z" fill="black"/>
<path opacity="0.1" d="M301.547 464.212L248.923 484.087L249.109 484.717L301.733 464.842L301.547 464.212Z" fill="black"/>
<path opacity="0.1" d="M312.087 462.234L248.907 489.432L249.115 490.053L312.296 462.855L312.087 462.234Z" fill="black"/>
<path opacity="0.1" d="M321.767 462.139L249.259 495.737L249.482 496.351L321.989 462.753L321.767 462.139Z" fill="black"/>
<path opacity="0.1" d="M332.293 459.262L250.106 501.291L250.347 501.897L332.535 459.867L332.293 459.262Z" fill="black"/>
<path opacity="0.1" d="M341.137 459.275L250.756 503.998L250.991 504.606L341.372 459.884L341.137 459.275Z" fill="black"/>
<path opacity="0.1" d="M360.48 455.556L252.119 508.54L252.352 509.149L360.713 456.166L360.48 455.556Z" fill="black"/>
<path opacity="0.3" d="M89.2985 407.703L192.54 383.132L255.436 396.746L170.836 427.625L89.2985 407.703Z" fill="white"/>
<path d="M376.381 409.25C376.381 409.25 381.719 411.687 378.587 415.453C375.455 419.218 255.418 458.544 255.418 458.544L376.381 409.25Z" fill="#F94865"/>
<path d="M428.231 352.465C428.231 352.465 414.939 370.833 425.498 398.618L319.323 450.748L309.133 453.179L304.441 429.936L307.626 400.61V384.56L428.231 352.465Z" fill="#D5D6DB"/>
<path d="M92.953 340.585L239.903 310.263L434.631 345.379L313.685 394.674L92.953 340.585Z" fill="#48BEFF"/>
<path d="M92.9295 340.585C92.9295 340.585 79.1796 370.063 95.0178 397.29L312.94 450.748C312.94 450.748 299.419 427.247 313.662 394.667L92.9295 340.585Z" fill="#48BEFF"/>
<path opacity="0.1" d="M92.9295 340.585C92.9295 340.585 79.1796 370.063 95.0178 397.29L312.94 450.748C312.94 450.748 299.419 427.247 313.662 394.667L244.748 377.78L92.9295 340.585Z" fill="black"/>
<path opacity="0.1" d="M99.4407 350.805C99.4407 350.805 91.592 372.367 99.4407 386.333V350.805Z" fill="black"/>
<path d="M312.964 450.748L434.631 391.978C434.631 391.978 441.43 393.638 437.03 399.282C432.631 404.927 315.31 456.393 315.31 456.393L95.0413 397.29L312.964 450.748Z" fill="#48BEFF"/>
<path opacity="0.1" d="M312.964 450.748L434.631 391.978C434.631 391.978 441.43 393.638 437.03 399.282C432.631 404.927 315.31 456.393 315.31 456.393L95.0413 397.29L312.964 450.748Z" fill="black"/>
<path opacity="0.1" d="M302.992 400.61C302.992 400.61 291.26 416.548 302.992 440.455V400.61Z" fill="black"/>
<path opacity="0.1" d="M359.795 400.348L307.172 420.223L307.357 420.853L359.981 400.978L359.795 400.348Z" fill="black"/>
<path opacity="0.1" d="M370.343 398.367L307.162 425.565L307.371 426.186L370.551 398.988L370.343 398.367Z" fill="black"/>
<path opacity="0.1" d="M380.014 398.263L307.506 431.861L307.729 432.475L380.236 398.877L380.014 398.263Z" fill="black"/>
<path opacity="0.1" d="M390.547 395.387L308.36 437.417L308.601 438.022L390.789 395.992L390.547 395.387Z" fill="black"/>
<path opacity="0.1" d="M399.382 395.392L309.002 440.115L309.237 440.723L399.617 396.001L399.382 395.392Z" fill="black"/>
<path opacity="0.1" d="M418.73 391.673L310.369 444.657L310.602 445.266L418.963 392.283L418.73 391.673Z" fill="black"/>
<path opacity="0.45" d="M147.548 343.832L250.79 319.261L313.685 332.875L229.086 363.754L147.548 343.832Z" fill="white"/>
<path d="M434.631 345.379C434.631 345.379 439.963 347.816 436.837 351.575C433.71 355.334 313.685 394.667 313.685 394.667L434.631 345.379Z" fill="#48BEFF"/>
<path d="M433.745 279.397C433.745 279.397 420.447 312.381 431.006 340.16L324.831 377.68L314.665 380.117L309.972 356.874L313.11 327.542V311.491L433.745 279.397Z" fill="#D5D6DB"/>
<path d="M98.4846 267.523L245.44 237.195L440.168 272.311L319.217 321.605L98.4846 267.523Z" fill="#FFCB5C"/>
<path d="M98.4846 267.516C98.4846 267.516 84.7171 296.995 100.555 324.222L318.478 377.68C318.478 377.68 304.951 354.178 319.194 321.605L98.4846 267.516Z" fill="#FFCB5C"/>
<path opacity="0.1" d="M98.4846 267.516C98.4846 267.516 84.7171 296.995 100.555 324.222L318.478 377.68C318.478 377.68 304.951 354.178 319.194 321.605L98.4846 267.516Z" fill="black"/>
<path opacity="0.1" d="M104.978 277.736C104.978 277.736 97.1236 299.306 104.978 313.265V277.736Z" fill="black"/>
<path d="M318.501 377.68L440.163 333.519C440.163 333.519 446.967 335.179 442.568 340.824C438.168 346.468 320.848 383.325 320.848 383.325L100.579 324.222L318.501 377.68Z" fill="#FFCB5C"/>
<path opacity="0.1" d="M318.501 377.68L440.163 333.519C440.163 333.519 446.967 335.179 442.568 340.824C438.168 346.468 320.848 383.325 320.848 383.325L100.579 324.222L318.501 377.68Z" fill="#FFCB5C"/>
<path opacity="0.1" d="M308.529 327.542C308.529 327.542 296.797 343.48 308.529 367.387V327.542Z" fill="black"/>
<path opacity="0.1" d="M365.335 327.278L312.711 347.154L312.897 347.784L365.52 327.908L365.335 327.278Z" fill="black"/>
<path opacity="0.1" d="M375.878 325.301L312.698 352.499L312.906 353.12L376.087 325.922L375.878 325.301Z" fill="black"/>
<path opacity="0.1" d="M385.544 325.2L313.036 358.798L313.258 359.412L385.766 325.814L385.544 325.2Z" fill="black"/>
<path opacity="0.1" d="M396.085 322.318L313.897 364.348L314.139 364.953L396.327 322.923L396.085 322.318Z" fill="black"/>
<path opacity="0.1" d="M404.923 322.329L314.543 367.052L314.778 367.661L405.158 322.938L404.923 322.329Z" fill="black"/>
<path opacity="0.1" d="M424.269 318.615L315.908 371.598L316.141 372.208L424.502 319.225L424.269 318.615Z" fill="black"/>
<path opacity="0.3" d="M153.08 270.764L256.322 246.193L319.217 259.806L234.617 290.686L153.08 270.764Z" fill="white"/>
<path d="M440.163 272.311C440.163 272.311 445.501 274.748 442.368 278.513C439.236 282.279 319.217 321.605 319.217 321.605L440.163 272.311Z" fill="#FFCB5C"/>
<path opacity="0.1" d="M495.691 143.494C495.691 143.494 473.4 141.973 476.004 159.677C476.004 159.677 475.482 162.805 477.987 164.226C477.987 164.226 478.028 162.898 480.275 163.356C481.077 163.508 481.892 163.553 482.703 163.489C483.787 163.398 484.816 162.914 485.636 162.108C485.636 162.108 491.913 159.172 494.347 147.564C494.347 147.564 496.154 145.034 496.107 144.383L492.341 146.203C492.341 146.203 493.626 149.278 492.617 151.834C492.617 151.834 492.494 146.316 491.772 146.442C491.625 146.442 489.813 147.511 489.813 147.511C489.813 147.511 492.024 152.87 490.358 156.762C490.358 156.762 490.992 150.161 489.121 147.896L486.469 149.649C486.469 149.649 489.056 155.181 487.302 159.697C487.302 159.697 487.754 152.771 485.912 150.075L483.513 152.2C483.513 152.2 485.941 157.652 484.457 161.397C484.457 161.397 484.264 153.335 482.991 152.724C482.991 152.724 480.891 154.823 480.568 155.686C480.568 155.686 482.234 159.67 481.201 161.736C481.201 161.736 480.568 156.363 480.028 156.337C480.028 156.337 477.934 159.896 477.717 162.313C477.819 160.059 478.442 157.874 479.524 155.978C478.315 156.237 477.2 156.89 476.315 157.857C476.315 157.857 476.644 155.341 480.04 155.121C480.04 155.121 481.77 152.419 482.234 152.253C482.234 152.253 478.855 151.934 476.802 152.963C476.802 152.963 478.609 150.592 482.85 151.635L485.196 149.444C485.196 149.444 480.744 148.78 478.861 149.517C478.861 149.517 481.031 147.418 485.836 148.946L488.417 147.199C488.417 147.199 484.621 146.276 482.363 146.608C482.363 146.608 484.745 145.154 489.173 146.728L491.021 145.791C491.021 145.791 488.241 145.174 487.425 145.074C486.61 144.974 486.569 144.722 486.569 144.722C488.33 144.39 490.138 144.62 491.79 145.386C491.79 145.386 495.761 143.772 495.691 143.494Z" fill="#F92665"/>
<path opacity="0.1" d="M141.624 145.674C141.624 145.674 131.91 122.876 119.545 134.113C119.545 134.113 116.875 135.122 117.005 138.29C117.005 138.29 118.031 137.685 118.764 140.129C119.038 140.993 119.4 141.818 119.844 142.586C120.444 143.628 121.327 144.421 122.36 144.844C122.36 144.844 127.681 149.612 137.823 146.358C137.823 146.358 140.656 146.909 141.12 146.524L137.882 143.689C137.882 143.689 136.122 146.458 133.67 146.704C133.67 146.704 137.87 143.894 137.418 143.244C137.324 143.111 135.658 141.829 135.658 141.829C135.658 141.829 132.602 146.63 128.789 146.876C128.789 146.876 134.186 144.286 135.019 141.331L132.379 139.565C132.379 139.565 129.37 144.824 125.035 145.289C125.035 145.289 130.596 142.36 131.775 139.226L128.971 137.898C128.971 137.898 125.95 142.958 122.337 143.323C122.337 143.323 128.461 139.199 128.308 137.639C128.308 137.639 125.663 136.59 124.842 136.689C124.842 136.689 122.601 140.269 120.489 140.269C120.489 140.269 124.319 137.021 124.085 136.497C124.085 136.497 120.319 136.165 118.336 137.161C120.123 136.155 122.111 135.698 124.102 135.833C123.312 134.766 122.264 133.984 121.087 133.581C121.087 133.581 123.187 132.678 125.012 135.926C125.012 135.926 127.945 136.317 128.291 136.696C128.291 136.696 126.889 133.203 125.1 131.682C125.1 131.682 127.81 132.3 129.047 136.995L131.893 138.27C131.893 138.27 130.256 133.542 128.748 132.047C128.748 132.047 131.423 133.17 132.591 138.688L135.195 140.388C135.195 140.388 134.063 136.185 132.702 134.119C132.702 134.119 134.984 135.766 135.928 140.906L137.553 142.274C137.553 142.274 136.673 139.226 136.38 138.376C136.087 137.526 136.233 137.353 136.233 137.353C137.349 138.93 138.056 140.827 138.275 142.832C138.275 142.832 141.413 145.873 141.624 145.674Z" fill="#F94865"/>
<path opacity="0.1" d="M475.787 224.053C475.787 224.053 466.079 201.248 453.69 212.484C453.69 212.484 451.026 213.494 451.15 216.661C451.15 216.661 452.182 216.064 452.909 218.501C453.181 219.368 453.543 220.195 453.989 220.965C454.587 222.005 455.468 222.795 456.499 223.216C456.499 223.216 461.826 227.991 471.968 224.737C471.968 224.737 474.796 225.288 475.265 224.896L472.027 222.06C472.027 222.06 470.267 224.836 467.815 225.082C467.815 225.082 472.009 222.266 471.558 221.615C471.464 221.483 469.798 220.201 469.798 220.201C469.798 220.201 466.747 225.002 462.929 225.255C462.929 225.255 468.331 222.658 469.164 219.71L466.519 217.943C466.519 217.943 463.515 223.203 459.174 223.667C459.174 223.667 464.735 220.732 465.92 217.598L463.111 216.27C463.111 216.27 460.09 221.33 456.482 221.695C456.482 221.695 462.606 217.571 462.454 216.011C462.454 216.011 459.808 214.955 458.987 215.061C458.987 215.061 456.746 218.634 454.628 218.634C454.628 218.634 458.465 215.386 458.23 214.862C458.23 214.862 454.464 214.53 452.475 215.526C454.264 214.521 456.254 214.063 458.248 214.198C457.459 213.129 456.411 212.346 455.232 211.946C455.232 211.946 457.332 211.037 459.157 214.291C459.157 214.291 462.09 214.682 462.436 215.061C462.436 215.061 461.034 211.568 459.245 210.041C459.245 210.041 461.955 210.665 463.193 215.386L466.038 216.661C466.038 216.661 464.401 211.927 462.893 210.439C462.893 210.439 465.568 211.555 466.73 217.08L469.34 218.773C469.34 218.773 468.202 214.576 466.841 212.504C466.841 212.504 469.129 214.151 470.073 219.298L471.698 220.626C471.698 220.626 470.818 217.578 470.525 216.728C470.232 215.878 470.379 215.712 470.379 215.712C471.494 217.288 472.199 219.185 472.414 221.19C472.414 221.19 475.605 224.252 475.787 224.053Z" fill="#48BEFF"/>
<path d="M419.397 250.549C415.561 238.749 394.443 237.64 385.28 240.648C378.769 242.793 365.042 245.21 357.71 246.425L357.235 245.914C358.185 245.595 358.209 244.812 358.091 243.65C358.023 242.118 358.043 240.583 358.15 239.054C362.643 240.635 366.644 236.896 366.644 236.896C371.923 234.24 370.504 222.871 371.513 219.763C372.269 217.438 373.085 203.745 373.448 196.919H373.525L373.566 194.627C373.619 193.638 373.642 193.06 373.642 193.06C373.642 193.06 374.158 176.365 375.167 172.985C376.106 169.877 376.868 154.218 376.986 151.735C376.986 151.522 376.986 151.409 376.986 151.409L376.909 149.962C376.962 148.906 376.986 147.73 376.98 146.495C376.98 140.817 376.458 133.665 376.393 132.51C376.393 132.344 376.393 132.145 376.393 131.905C376.434 129.482 376.164 117.342 367.043 112.754C363.682 111.053 359.64 109.028 355.727 107.056C354.718 97.1942 352.413 87.3858 352.612 77.4512C352.612 75.957 352.73 74.4629 352.859 72.9753C352.859 73.407 352.818 73.8453 352.812 74.3035C352.812 75.2664 352.812 76.2359 352.812 77.1989C353.158 64.774 357.305 52.2827 356.918 40.1235C356.883 41.3122 356.807 42.5075 356.707 43.7028C356.909 39.5901 356.529 35.4672 355.581 31.4905C355.229 30.0893 354.753 28.6416 353.739 27.7052C352.779 26.9511 351.679 26.458 350.524 26.2642C347.748 25.4598 344.928 24.8653 342.083 24.4845C341.65 22.9861 341.009 21.5759 340.182 20.3074C334.234 11.0635 325.423 2.37736 315.005 0.385134C309.779 -0.61098 303.766 0.219114 300.211 4.44928C299.84 4.82089 299.491 5.22023 299.167 5.64462C297.255 8.22787 296.433 11.6213 294.474 14.1979C294.345 14.3706 294.199 14.53 294.058 14.696C290.221 18.5808 284.244 19.391 279.979 22.8774C279.228 23.5033 278.523 24.1985 277.873 24.956C276.155 26.8837 274.614 29.0042 273.274 31.2846C271.356 34.3394 269.385 37.5203 268.775 41.1661C267.549 48.4709 271.943 55.3972 272.758 62.7486C274.577 79.1977 258.498 93.7941 261.542 110.024C262.355 114.011 264.149 117.656 266.716 120.536C260.445 126.965 255.107 133.2 255.107 133.2V133.572H254.116L254.216 134.9H254.116L254.662 142.106L254.116 152.598C254.116 152.598 254.116 152.711 254.116 152.923V152.977V153.262C254.116 153.262 254.116 153.375 254.116 153.588H254.151C254.333 157.433 255.055 171.259 255.911 174.174C256.92 177.554 257.43 194.249 257.43 194.249C257.43 194.249 258.545 217.844 259.566 220.965C260.586 224.086 259.137 235.422 264.434 238.098C265.984 239.444 267.819 240.305 269.755 240.595C269.485 243.078 269.655 244.878 270.529 245.443C270.903 245.692 271.327 245.829 271.761 245.841C271.402 246.444 271.082 247.077 270.805 247.734C268.702 247.485 266.636 246.934 264.657 246.093C258.967 243.437 240.084 237.46 234.6 241.664C229.115 245.868 215.916 249.679 222.011 266.6C228.106 283.521 230.945 283.946 230.945 283.946C232.821 285.488 234.467 287.36 235.82 289.491C237.65 292.605 254.703 299.731 258.967 299.731C260.78 299.699 262.592 299.801 264.393 300.036C264.393 300.036 259.765 304.632 260.381 307.301C260.997 309.971 258.973 331.341 258.973 331.341C258.973 331.341 263.666 336.693 265.672 329.674L265.742 329.78C266.118 330.358 268.148 332.968 271.966 329.674C273.529 328.332 275.189 327.141 276.929 326.115L295.419 323.153C297.346 323.016 299.279 323.001 301.208 323.106C304.141 323.379 307.022 321.413 308.834 319.892C312.665 321.539 316.97 323.339 319.018 323.996C323.171 325.324 342.259 331.122 346.723 329.309C347.651 328.891 348.476 328.226 349.128 327.37L353.387 327.522L351.392 327.974C351.392 327.974 355.276 328.047 360.555 328.127L360.332 328.273L366.955 328.206C376.645 328.306 387.533 328.339 388.964 327.974C391.205 327.41 402.849 327.808 406.281 327.974H407.237C407.237 327.974 420.031 325.085 414.751 310.389C410.692 299.1 398.215 295.819 392.677 294.916C394.238 294.564 395.581 294.292 396.473 294.133C400.338 293.469 407.847 289.484 408.457 288.123C409.067 286.761 415.361 282.81 416.986 280.559C418.611 278.308 423.251 262.35 419.397 250.549ZM313.427 283.574L312.8 283.806L312.377 283.966L311.568 284.869C310.923 284.377 310.23 283.859 309.509 283.328C310.782 283.414 312.09 283.501 313.427 283.574Z" fill="url(#paint0_linear)"/>
<path d="M350.829 213.554C350.829 213.554 359.804 240.117 364.908 237.46C370.011 234.804 368.627 223.515 369.6 220.42C370.574 217.326 371.653 193.857 371.653 193.857C371.653 193.857 372.146 177.255 373.12 173.895C374.023 170.807 374.757 155.234 374.88 152.784C374.88 152.571 374.88 152.459 374.88 152.459L373.912 133.2L368.433 131.653L355.727 136.966L353.967 148.341L353.281 152.784L352.988 154.677L350.829 213.554Z" fill="#BE6F72"/>
<path opacity="0.1" d="M353.786 209.104C353.786 209.104 362.35 217.04 364.931 217.737C367.512 218.434 369.096 224.624 369.096 224.624" fill="black"/>
<path d="M280.642 214.716C280.642 214.716 271.667 241.279 266.564 238.622C261.46 235.966 262.845 224.677 261.871 221.582C260.897 218.488 259.818 195.019 259.818 195.019C259.818 195.019 259.325 178.417 258.351 175.057C257.448 171.969 256.715 156.397 256.591 153.946C256.591 153.734 256.591 153.621 256.591 153.621L257.565 134.363L263.044 132.815L275.75 138.128L277.51 149.503L278.196 153.946L278.489 155.839L280.642 214.716Z" fill="#BE6F72"/>
<path d="M339.085 72.5636H319.053V107.912H339.085V72.5636Z" fill="#3E373A"/>
<path opacity="0.1" d="M339.085 72.5636H319.053V107.912H339.085V72.5636Z" fill="black"/>
<path d="M277.122 241.172C277.122 241.172 270.277 249.693 272.817 251.24C275.357 252.787 291.788 281.787 291.788 281.787C291.788 281.787 345.755 289.311 355.932 278.022C366.11 266.733 365.905 246.565 365.905 246.565C365.905 246.565 357.727 248.557 356.836 247.475C355.944 246.392 351.046 241.172 351.046 241.172C351.046 241.172 281.815 236.418 277.122 241.172Z" fill="#4B4B5B"/>
<path opacity="0.02" d="M277.122 241.172C277.122 241.172 270.277 249.693 272.817 251.24C275.357 252.787 291.788 281.787 291.788 281.787C291.788 281.787 345.755 289.311 355.932 278.022C366.11 266.733 365.905 246.565 365.905 246.565C365.905 246.565 357.727 248.557 356.836 247.475C355.944 246.392 351.046 241.172 351.046 241.172C351.046 241.172 281.815 236.418 277.122 241.172Z" fill="black"/>
<path d="M374.276 133.479L356.678 149.417L351.357 149.855L349.404 150.015L316.595 152.737L282.572 149.922L277.51 149.503L271.057 148.972L257.565 134.362C257.565 134.362 267.115 122.781 275.48 114.965C278.777 111.877 281.892 109.38 284.162 108.397L284.549 108.244C285.977 107.614 287.252 106.608 288.268 105.309C294.873 97.5992 300.98 78.5735 300.98 78.5735C300.98 78.5735 330.116 61.5333 326.597 83.8861C323.077 106.239 339.695 100.714 339.695 100.714L345.174 103.543L347.339 104.665L352.859 107.527L365.312 113.995C375.085 119.089 374.276 133.479 374.276 133.479Z" fill="#BE6F72"/>
<path opacity="0.1" d="M315.228 96.7758C329.7 96.7758 341.432 83.4946 341.432 67.1115C341.432 50.7284 329.7 37.4472 315.228 37.4472C300.756 37.4472 289.025 50.7284 289.025 67.1115C289.025 83.4946 300.756 96.7758 315.228 96.7758Z" fill="black"/>
<path opacity="0.1" d="M374.317 154.61H256.591C256.591 154.398 256.591 154.285 256.591 154.285L257.565 135.027C257.565 135.027 267.115 123.445 275.48 115.629L349.392 112.309L352.829 108.205L365.283 114.673C375.062 119.759 374.276 134.15 374.276 134.15C374.276 134.15 375.613 150.825 374.317 154.61Z" fill="black"/>
<path d="M374.317 153.946H256.591C256.591 153.734 256.591 153.621 256.591 153.621L257.565 134.362C257.565 134.362 267.115 122.781 275.48 114.965L349.392 111.644L352.829 107.54L365.283 114.009C375.062 119.095 374.276 133.486 374.276 133.486C374.276 133.486 375.613 150.161 374.317 153.946Z" fill="#E7C7CA"/>
<path opacity="0.1" d="M296.357 99.9434C296.357 99.9434 314.929 126.732 339.666 99.3922C364.403 72.0522 342.405 160.374 342.405 160.374L289.025 167.546L296.357 99.9434Z" fill="black"/>
<path d="M296.357 101.272C296.357 101.272 314.929 128.06 339.666 100.72C364.403 73.3804 342.405 161.703 342.405 161.703L289.025 168.875L296.357 101.272Z" fill="#E7C7CA"/>
<path opacity="0.1" d="M347.309 105.973L349.275 139.901L351.38 151.19L352.988 159.823C352.988 159.823 357.094 226.231 355.921 229.551C354.748 232.872 356.507 235.528 356.754 237.294C357 239.061 356.507 243.497 356.701 245.489C356.895 247.481 356.701 248.364 352.208 247.654C347.714 246.943 341.449 245.708 341.449 245.708C341.449 245.708 325.611 247.036 320.138 244.825C314.665 242.614 304.3 242.607 304.3 242.607C304.3 242.607 288.655 243.052 283.575 242.388C278.495 241.724 275.75 249.473 272.43 247.255C269.11 245.037 276.337 223.574 278.683 217.372C281.029 211.17 275.556 195.457 275.556 195.457L282.596 151.25L284.162 141.229V109.725L284.549 109.573C285.977 108.942 287.252 107.936 288.268 106.637L290.028 138.34L345.168 140.558V104.878" fill="black"/>
<path d="M347.309 104.645L349.275 138.573L351.38 149.862L352.988 158.495C352.988 158.495 357.094 224.903 355.921 228.223C354.748 231.543 356.507 234.2 356.754 235.966C357 237.733 356.507 242.169 356.701 244.161C356.895 246.153 356.701 247.036 352.208 246.326C347.714 245.615 341.449 244.38 341.449 244.38C341.449 244.38 325.611 245.708 320.138 243.497C314.665 241.285 304.3 241.279 304.3 241.279C304.3 241.279 288.655 241.724 283.575 241.06C278.495 240.396 275.75 248.145 272.43 245.927C269.11 243.709 276.337 222.246 278.683 216.044C281.029 209.841 275.556 194.129 275.556 194.129L282.596 149.922L284.162 139.901V108.397L284.549 108.244C285.977 107.614 287.252 106.608 288.268 105.309L290.028 137.012L345.168 139.23V103.549" fill="#E7C7CA"/>
<path opacity="0.1" d="M353.651 33.8413C353.316 32.4534 352.853 31.0124 351.891 30.0826C350.972 29.3359 349.911 28.8445 348.794 28.6482C346.118 27.8517 343.398 27.2616 340.652 26.8818C340.259 25.4072 339.665 24.0113 338.892 22.7446C333.143 13.5538 324.637 4.88761 314.63 2.92858C309.392 1.89927 303.32 2.82233 299.965 7.49742C298.123 10.0674 297.331 13.4741 295.471 15.9976C291.887 20.8985 285.417 21.5028 280.9 25.2947C278.489 27.2869 276.741 30.1756 275.034 32.978C273.186 36.0128 271.286 39.1739 270.699 42.7997C269.526 50.0448 273.755 56.9512 274.536 64.2626C276.295 80.6188 260.809 95.1289 263.736 111.266C265.443 120.676 273.122 127.303 281.065 130.664C283.863 131.852 287.06 133.034 288.368 136.076C288.954 137.404 289.054 138.938 289.605 140.279C291.459 144.755 297.554 144.928 300.827 141.667C304.1 138.407 305.133 133.134 305.52 128.213C307.092 106.724 299.49 85.4931 300.375 63.9505C300.639 57.4359 302.258 50.0448 307.415 47.0963C314.354 43.1118 322.702 49.7526 330.339 48.4842C333.953 58.4396 334.721 69.427 332.533 79.9016C331.319 85.6326 329.219 91.1909 329.066 97.1012C328.837 106.099 333.125 114.321 336.833 122.276C337.628 123.764 338.16 125.413 338.399 127.131C338.457 128.874 338.171 130.609 337.56 132.211C335.466 138.593 331.853 144.516 331.442 151.31C331.322 152.103 331.479 152.918 331.882 153.581C332.295 154.024 332.829 154.295 333.395 154.351C339.731 155.58 345.209 149.225 348.301 142.843C351.748 135.794 353.756 127.961 354.179 119.919C354.818 106.398 350.536 93.0968 350.8 79.5629C351.105 64.1763 357.247 48.6834 353.651 33.8413Z" fill="black"/>
<path d="M354.237 33.1772C353.903 31.7893 353.439 30.3483 352.477 29.4186C351.559 28.6718 350.498 28.1804 349.38 27.9842C346.705 27.1877 343.984 26.5975 341.238 26.2177C340.846 24.7431 340.252 23.3472 339.478 22.0805C333.73 12.8897 325.224 4.22351 315.216 2.26449C309.978 1.23517 303.907 2.15824 300.551 6.83333C298.709 9.40331 297.918 12.81 296.058 15.3335C292.474 20.2344 286.004 20.8387 281.487 24.6306C279.076 26.6228 277.328 29.5115 275.621 32.3139C273.773 35.3488 271.872 38.5098 271.286 42.1356C270.113 49.3807 274.342 56.2871 275.122 63.5985C276.882 79.9547 261.396 94.4648 264.323 110.602C266.03 120.012 273.708 126.639 281.651 130C284.449 131.188 287.646 132.37 288.954 135.412C289.541 136.74 289.641 138.274 290.192 139.615C292.046 144.091 298.14 144.264 301.414 141.003C304.687 137.743 305.719 132.47 306.106 127.549C307.679 106.06 300.076 84.8291 300.962 63.2864C301.226 56.7718 302.845 49.3807 308.001 46.4322C314.941 42.4477 323.288 49.0885 330.926 47.8201C334.54 57.7755 335.307 68.7629 333.12 79.2375C331.905 84.9685 329.805 90.5268 329.653 96.4371C329.424 105.435 333.712 113.657 337.419 121.612C338.215 123.1 338.747 124.749 338.986 126.467C339.044 128.21 338.757 129.945 338.147 131.547C336.053 137.929 332.439 143.852 332.028 150.646C331.908 151.439 332.066 152.254 332.468 152.917C332.882 153.359 333.415 153.631 333.982 153.687C340.317 154.916 345.796 148.56 348.887 142.179C352.334 135.13 354.342 127.297 354.765 119.255C355.405 105.734 351.122 92.4327 351.386 78.8989C351.691 63.5122 357.833 48.0193 354.237 33.1772Z" fill="#3E373A"/>
<path d="M341.279 327.21L364.55 328.054L361.212 308.516L343.385 310.436L341.279 327.21Z" fill="#C3C7D9"/>
<path d="M413.384 280.904C411.818 283.116 405.758 287.1 405.172 288.428C404.585 289.756 397.352 293.741 393.633 294.405C389.914 295.069 378.188 297.951 376.035 299.498C374.493 300.614 362.109 304.147 353.973 306.106C351.77 306.696 349.539 307.15 347.292 307.467C343.772 307.686 305.256 292.857 305.256 292.857L312.682 284.225L313.093 284.065C315.193 283.262 324.895 279.549 330.28 277.783C336.346 275.791 343.385 267.603 343.385 267.603C343.385 267.603 353.744 263.618 355.117 263.173C356.49 262.728 351.598 247.68 351.598 247.68C351.598 247.68 374.082 244.148 382.881 241.153C391.68 238.158 412.018 239.267 415.731 251.001C419.444 262.735 414.974 278.693 413.384 280.904Z" fill="#4B4B5B"/>
<path d="M310.923 318.312C310.923 318.312 306.429 323.624 301.93 323.186C297.431 322.748 281.698 324.514 281.698 324.514C278.847 325.802 276.177 327.553 273.773 329.714C270.095 332.994 268.142 330.378 267.778 329.82L267.713 329.714C265.754 336.693 261.261 331.374 261.261 331.374C261.261 331.374 263.214 310.123 262.616 307.467C262.018 304.811 266.482 300.249 266.482 300.249L271.761 298.728L285.136 294.85L304.3 302.374L310.923 318.312Z" fill="#E7C7CA"/>
<path opacity="0.1" d="M271.738 298.728L267.778 329.82L267.713 329.714C265.754 336.693 261.261 331.374 261.261 331.374C261.261 331.374 263.214 310.123 262.616 307.467C262.018 304.811 266.482 300.249 266.482 300.249L271.738 298.728Z" fill="black"/>
<path opacity="0.1" d="M299.413 210.286C299.413 210.286 309.773 214.271 318.771 210.286H299.413Z" fill="black"/>
<path opacity="0.1" d="M334.78 217.817C334.78 217.817 339.079 220.247 342.405 217.817H334.78Z" fill="black"/>
<path opacity="0.1" d="M334.78 223.581C334.78 223.581 342.012 224.677 343.385 222.465L334.78 223.581Z" fill="black"/>
<path opacity="0.1" d="M332.433 235.966C332.433 235.966 346.019 233.974 349.392 231.318L332.433 235.966Z" fill="black"/>
<path opacity="0.1" d="M290.978 231.318C290.978 231.318 298.604 236.185 304.276 235.966L290.978 231.318Z" fill="black"/>
<path opacity="0.1" d="M353.967 306.106C351.764 306.696 349.533 307.151 347.286 307.467C343.766 307.686 305.25 292.858 305.25 292.858L312.676 284.225L313.087 284.065C314.26 285.001 315.222 285.805 315.909 286.416C319.141 289.298 322.262 285.533 323.435 285.533C324.608 285.533 334.774 295.049 334.774 295.049C334.774 295.049 344.159 297.486 345.726 299.697C347.292 301.909 352.765 301.471 353.739 303.018C354.032 303.496 354.067 304.671 353.967 306.106Z" fill="black"/>
<path d="M281.698 248.584C281.698 248.584 272.207 249.201 266.734 246.591C261.261 243.982 243.076 237.958 237.797 242.189C232.517 246.419 219.806 250.157 225.672 266.985C231.538 283.813 234.277 284.251 234.277 284.251C236.092 285.792 237.677 287.653 238.97 289.763C240.73 292.864 257.155 299.943 261.261 299.943C265.367 299.943 272.6 299.943 282.766 307.912C292.931 315.881 302.124 316.771 302.124 316.771C302.124 316.771 315.029 322.748 319.047 324.076C323.065 325.404 341.426 331.155 345.732 329.388C350.037 327.622 352.771 316.545 352.771 316.545C352.771 316.545 354.724 306.584 353.745 305.037C352.765 303.489 347.292 303.928 345.732 301.716C344.171 299.505 334.78 297.068 334.78 297.068C334.78 297.068 324.637 287.545 323.464 287.545C322.291 287.545 319.17 291.304 315.938 288.428C309.5 283.029 302.735 278.148 295.694 273.818C288.268 269.389 281.698 248.584 281.698 248.584Z" fill="#4B4B5B"/>
<path opacity="0.1" d="M262.616 255.005C264.306 254.614 266.053 254.67 267.72 255.169C269.388 255.668 270.931 256.596 272.23 257.881C276.923 262.31 292.714 271.202 292.714 271.202" fill="black"/>
<path opacity="0.1" d="M379.948 254.726C379.948 254.726 359.024 258.312 355.117 263.18L379.948 254.726Z" fill="black"/>
<path d="M403.999 328.053H403.078C399.769 327.921 388.559 327.522 386.401 328.053C383.861 328.718 350.225 328.053 350.225 328.053L356.801 326.506C356.801 326.506 354.36 316.824 355.909 316.02C355.909 316.02 347.11 309.459 353.744 305.03C360.379 300.601 367.53 302.467 367.53 302.467L384.183 296.078L387.38 294.85C387.38 294.85 406.152 295.959 411.231 310.568C416.311 325.178 403.999 328.053 403.999 328.053Z" fill="#E7C7CA"/>
<path opacity="0.1" d="M403.999 328.054H403.078C408.539 322.953 420.893 307.427 384.183 296.111L387.38 294.883C387.38 294.883 406.151 295.992 411.231 310.602C416.311 325.211 403.999 328.054 403.999 328.054Z" fill="black"/>
<path d="M369.489 310.841C370.056 310.841 370.515 310.32 370.515 309.679C370.515 309.037 370.056 308.516 369.489 308.516C368.922 308.516 368.462 309.037 368.462 309.679C368.462 310.32 368.922 310.841 369.489 310.841Z" fill="#4B4B5B"/>
<path d="M363.523 312.76C364.09 312.76 364.55 312.24 364.55 311.598C364.55 310.956 364.09 310.436 363.523 310.436C362.956 310.436 362.497 310.956 362.497 311.598C362.497 312.24 362.956 312.76 363.523 312.76Z" fill="#4B4B5B"/>
<g opacity="0.1">
<path opacity="0.1" d="M334.457 66.0141C334.685 58.7098 333.537 51.4343 331.09 44.6707C323.464 45.959 315.111 39.2983 308.166 43.2827C303.027 46.2312 301.414 53.6224 301.126 60.137C301.056 61.8569 301.044 63.5769 301.074 65.2969C301.074 64.6859 301.074 64.0683 301.126 63.4574C301.396 56.9428 303.009 49.5516 308.166 46.6031C315.111 42.6187 323.452 49.2594 331.09 47.991C333.162 53.7201 334.303 59.8258 334.457 66.0141Z" fill="black"/>
<path opacity="0.1" d="M275.363 64.8005C275.463 63.3535 275.438 61.8988 275.287 60.4575C274.665 54.6136 271.843 49.0287 271.333 43.331C270.676 50.2041 274.542 56.8051 275.287 63.7779C275.363 64.1365 275.363 64.4552 275.363 64.8005Z" fill="black"/>
<path opacity="0.1" d="M306.271 124.395C305.907 129.322 304.881 134.588 301.578 137.856C298.276 141.123 292.192 140.943 290.356 136.468C289.77 135.139 289.682 133.592 289.113 132.264C287.811 129.223 284.608 128.04 281.81 126.852C273.861 123.485 266.194 116.891 264.487 107.454C264.335 106.599 264.231 105.734 264.176 104.864C264.032 106.841 264.137 108.831 264.487 110.774C266.194 120.184 273.873 126.805 281.81 130.172C284.608 131.361 287.811 132.543 289.113 135.584C289.699 136.913 289.799 138.447 290.356 139.788C292.204 144.264 298.299 144.437 301.578 141.176C304.857 137.915 305.878 132.643 306.271 127.715C306.449 125.122 306.51 122.519 306.453 119.919C306.453 121.426 306.376 122.914 306.271 124.395Z" fill="black"/>
<path opacity="0.1" d="M351.58 75.7512C351.58 76.7141 351.58 77.6703 351.58 78.6266C351.908 66.2748 355.909 53.8566 355.516 41.7637C355.211 52.9468 351.803 64.3822 351.58 75.7512Z" fill="black"/>
<path opacity="0.1" d="M338.991 125.716C339.136 124.928 339.181 124.121 339.126 123.319C338.89 121.6 338.358 119.951 337.56 118.465C334.17 111.16 330.304 103.682 329.846 95.5738C329.846 95.9191 329.805 96.2379 329.799 96.6098C329.565 105.601 333.853 113.829 337.56 121.785C338.19 123.017 338.672 124.339 338.991 125.716Z" fill="black"/>
<path opacity="0.1" d="M354.953 116.107C354.515 124.152 352.493 131.985 349.034 139.031C345.937 145.413 340.464 151.768 334.123 150.539C333.554 150.484 333.02 150.21 332.609 149.762C332.49 149.61 332.397 149.435 332.333 149.244C332.263 149.762 332.204 150.287 332.169 150.818C332.048 151.609 332.206 152.422 332.609 153.083C333.02 153.53 333.554 153.804 334.123 153.86C340.464 155.088 345.937 148.733 349.034 142.351C352.493 135.305 354.515 127.473 354.953 119.427C355.023 117.873 355.029 116.326 354.988 114.779C354.976 115.224 354.976 115.662 354.953 116.107Z" fill="black"/>
</g>
<path opacity="0.1" d="M355.909 316.02C355.909 316.02 370.756 323.073 380.546 307.467" stroke="black" stroke-miterlimit="10"/>
<path opacity="0.1" d="M358.83 328.346C358.83 328.346 370.955 319.421 386.401 328.054" stroke="black" stroke-miterlimit="10"/>
<path opacity="0.1" d="M277.668 326.32C277.668 326.32 282.76 313.318 296.357 323.232" stroke="black" stroke-miterlimit="10"/>
<path opacity="0.1" d="M261.161 134.03L271.544 123.405C271.544 123.405 311.802 120.417 313.468 135.91C313.468 135.91 327.74 117.541 357.757 121.632L370.457 133.081L335.355 150.519L301.244 163.914L276.119 151.184L261.161 134.03Z" fill="black"/>
<path d="M261.161 134.695L271.544 124.069C271.544 124.069 311.802 121.081 313.468 136.574C313.468 136.574 327.74 118.206 357.757 122.296L370.457 133.745L335.355 151.184L301.244 164.578L276.119 151.848L261.161 134.695Z" fill="#D5D6DB"/>
<path opacity="0.1" d="M256.568 136.023L261.161 198.227L309.849 200.996L307.737 139.057L307.696 138.015L256.568 136.023Z" fill="black"/>
<path d="M256.568 134.695L261.161 196.898L309.849 199.668L307.737 137.729L307.696 136.687L256.568 134.695Z" fill="#F94865"/>
<path opacity="0.1" d="M372.686 134.695L322.461 143.221V205.704L371.542 197.675L372.686 134.695Z" fill="black"/>
<path d="M372.686 133.366L322.461 141.893V204.376L371.542 196.347L372.686 133.366Z" fill="#F94865"/>
<path opacity="0.3" d="M360.842 148.614L333.712 152.027L334.305 162.493L360.825 159.212L360.842 148.614Z" fill="white"/>
<path d="M263.801 230.209L266.564 238.622C266.564 238.622 270.67 242.607 275.163 240.615C279.657 238.622 283.575 237.633 285.529 235.694C287.482 233.755 290.221 224.013 290.221 224.013C290.221 224.013 292.961 213.388 295.694 210.731C298.428 208.075 305.667 171.478 295.694 175.057C285.722 178.636 278.096 211.84 278.096 211.84C278.096 211.84 276.336 214.271 273.796 214.497C271.256 214.722 266.171 214.052 265.191 216.489C264.211 218.926 260.868 225.341 263.801 230.209Z" fill="#BE6F72"/>
<path opacity="0.1" d="M322.461 143.215C319.89 143.871 317.218 143.836 314.661 143.114C312.103 142.393 309.73 141.003 307.731 139.057L309.849 200.989C309.849 200.989 314.835 207.099 322.461 205.704V143.215Z" fill="black"/>
<path d="M322.461 141.886C319.89 142.542 317.218 142.508 314.661 141.786C312.103 141.064 309.73 139.675 307.731 137.729L309.849 199.661C309.849 199.661 314.835 205.771 322.461 204.376V141.886Z" fill="#F94865"/>
<path opacity="0.1" d="M322.461 141.886C319.89 142.542 317.218 142.508 314.661 141.786C312.103 141.064 309.73 139.675 307.731 137.729L309.849 199.661C309.849 199.661 314.835 205.771 322.461 204.376V141.886Z" fill="black"/>
<path opacity="0.1" d="M323.634 134.907C323.634 134.907 344.066 127.835 349.392 128.831L323.634 134.907Z" fill="black"/>
<path opacity="0.1" d="M300.78 131.819C300.78 131.819 280.977 126.506 277.668 128.014L300.78 131.819Z" fill="black"/>
<path opacity="0.1" d="M336.516 135.79C336.516 135.79 350.178 130.119 355.117 132.815L336.516 135.79Z" fill="black"/>
<path opacity="0.1" d="M329.635 278.055C331.752 276.255 334.006 274.671 336.369 273.32C339.889 271.401 346.342 266.421 346.342 266.421" fill="black"/>
<path opacity="0.1" d="M277.668 210.286C277.668 210.286 269.098 218.222 266.523 218.919C263.947 219.617 262.358 225.806 262.358 225.806" fill="black"/>
<path d="M367.647 229.027L364.913 237.46C364.913 237.46 360.807 241.445 356.308 239.453C351.809 237.46 347.902 236.471 345.943 234.532C343.983 232.593 341.25 222.851 341.25 222.851C341.25 222.851 338.516 212.225 335.777 209.569C333.037 206.913 325.805 170.316 335.777 173.895C345.749 177.474 353.375 210.678 353.375 210.678C353.375 210.678 355.135 213.109 357.675 213.334C360.215 213.56 365.301 212.89 366.28 215.327C367.26 217.764 370.58 224.179 367.647 229.027Z" fill="#BE6F72"/>
<path opacity="0.1" d="M362.854 213.514C362.854 213.514 368.456 217.591 368.433 222.465L362.854 213.514Z" fill="black"/>
<path d="M315.322 95.3215C329.794 95.3215 341.526 82.0403 341.526 65.6572C341.526 49.2741 329.794 35.9929 315.322 35.9929C300.85 35.9929 289.119 49.2741 289.119 65.6572C289.119 82.0403 300.85 95.3215 315.322 95.3215Z" fill="#BE6F72"/>
<path d="M298.868 57.6949C302.047 57.1305 304.834 55.0386 307.872 53.8366C314.671 51.1339 322.191 52.9866 329.072 55.4238C331.712 56.3601 334.392 57.416 337.161 57.416C339.93 57.416 342.869 56.1343 344.283 53.4316C345.585 50.9479 345.333 47.7205 344.236 45.1107C343.139 42.5009 341.303 40.4024 339.449 38.4234C333.348 31.9022 325.781 25.806 317.41 26.4701C314.043 26.7424 310.823 28.1037 307.726 29.6112C303.826 31.5137 300.029 33.678 296.357 36.0925C293.536 37.9453 288.309 40.4223 286.684 43.8091C282.989 51.4393 293.119 58.7176 298.868 57.6949Z" fill="#3E373A"/>
<path opacity="0.1" d="M344.283 50.6424C342.869 53.3452 339.93 54.6269 337.161 54.6269C334.392 54.6269 331.712 53.6109 329.066 52.6745C322.185 50.2374 314.671 48.3779 307.866 51.0874C304.834 52.2894 302.041 54.4078 298.862 54.939C294.228 55.7625 286.766 51.1936 285.957 45.383C285.047 52.0968 293.7 57.8477 298.862 56.9312C302.041 56.3668 304.834 54.2749 307.866 53.0796C314.671 50.3702 322.185 52.2296 329.066 54.6667C331.712 55.6031 334.387 56.659 337.161 56.6191C339.936 56.5793 342.869 55.3441 344.283 52.6347C345.015 51.1607 345.304 49.4565 345.104 47.7803C345.012 48.7894 344.732 49.765 344.283 50.6424Z" fill="black"/>
<path d="M556.932 410.538C556.932 410.538 560.41 415.685 555.324 423.461C550.239 431.238 546.05 437.799 547.74 442.646C547.74 442.646 555.412 428.209 561.654 428.004C567.895 427.798 563.789 419.218 556.932 410.538Z" fill="#48BEFF"/>
<path opacity="0.1" d="M556.932 410.538C557.235 411.036 557.474 411.579 557.641 412.152C563.73 420.254 566.98 427.818 561.12 428.004C555.665 428.183 549.124 439.227 547.558 442.009C547.608 442.234 547.669 442.456 547.74 442.673C547.74 442.673 555.412 428.236 561.654 428.03C567.895 427.824 563.789 419.218 556.932 410.538Z" fill="black"/>
<path d="M563.384 417.099C563.384 418.912 563.202 420.38 562.985 420.38C562.768 420.38 562.581 418.912 562.581 417.099C562.581 415.287 562.803 416.143 563.026 416.143C563.249 416.143 563.384 415.287 563.384 417.099Z" fill="#FFD037"/>
<path d="M565.608 419.264C564.206 420.128 562.98 420.652 562.874 420.433C562.768 420.214 563.818 419.331 565.22 418.441C566.622 417.551 566.071 418.202 566.177 418.441C566.282 418.68 567.016 418.394 565.608 419.264Z" fill="#FFD037"/>
<path d="M538.547 410.538C538.547 410.538 535.069 415.685 540.155 423.461C545.241 431.238 549.429 437.799 547.734 442.646C547.734 442.646 540.067 428.209 533.819 428.004C527.572 427.798 531.708 419.218 538.547 410.538Z" fill="#48BEFF"/>
<path opacity="0.1" d="M538.547 410.538C538.245 411.036 538.006 411.579 537.838 412.152C531.749 420.254 528.499 427.818 534.359 428.004C539.809 428.183 546.355 439.227 547.921 442.009C547.872 442.235 547.809 442.457 547.734 442.673C547.734 442.673 540.067 428.236 533.819 428.03C527.572 427.824 531.708 419.218 538.547 410.538Z" fill="black"/>
<path d="M532.083 417.099C532.083 418.912 532.259 420.38 532.482 420.38C532.705 420.38 532.887 418.912 532.887 417.099C532.887 415.287 532.658 416.143 532.441 416.143C532.224 416.143 532.083 415.287 532.083 417.099Z" fill="#FFD037"/>
<path d="M529.866 419.264C531.268 420.128 532.494 420.652 532.599 420.433C532.705 420.214 531.655 419.331 530.253 418.441C528.851 417.551 529.402 418.202 529.297 418.441C529.191 418.68 528.458 418.394 529.866 419.264Z" fill="#FFD037"/>
<path opacity="0.1" d="M547.74 481.631C567.826 481.631 584.109 478.803 584.109 475.315C584.109 471.827 567.826 469 547.74 469C527.653 469 511.37 471.827 511.37 475.315C511.37 478.803 527.653 481.631 547.74 481.631Z" fill="#F94865"/>
<path d="M566.458 435.707L566.282 437.314L566.036 439.585L565.936 440.535L565.69 442.806L565.584 443.756L565.343 446.02L562.557 471.853C562.311 474.157 558.985 475.957 554.967 475.957H540.507C536.489 475.957 533.168 474.157 532.916 471.853L530.13 446.02L529.883 443.756L529.784 442.806L529.537 440.535L529.432 439.585L529.191 437.314L529.015 435.707C528.88 434.379 530.675 433.303 532.951 433.303H562.528C564.798 433.303 566.599 434.399 566.458 435.707Z" fill="#65617D"/>
<path d="M566.282 437.314L566.042 439.585H529.438L529.191 437.314H566.282Z" fill="#9D9CB5"/>
<path d="M565.936 440.535L565.695 442.806H529.784L529.537 440.535H565.936Z" fill="#9D9CB5"/>
<path d="M565.59 443.755L565.343 446.027H530.13L529.889 443.755H565.59Z" fill="#9D9CB5"/>
</g>
<defs>
<linearGradient id="paint0_linear" x1="320.66" y1="333.313" x2="320.66" y2="-3.21229e-05" gradientUnits="userSpaceOnUse">
<stop stop-color="#808080" stop-opacity="0.25"/>
<stop offset="0.54" stop-color="#808080" stop-opacity="0.12"/>
<stop offset="1" stop-color="#808080" stop-opacity="0.1"/>
</linearGradient>
<clipPath id="clip0">
<rect width="600" height="540" fill="white"/>
</clipPath>
</defs>
</svg>
