<svg width="500" height="400" viewBox="0 0 500 400" fill="none" xmlns="http://www.w3.org/2000/svg">
<g clip-path="url(#clip0)">
<path d="M488.949 233.918C543.393 295.939 385.57 385.321 258.046 385.321C130.521 385.321 42.2942 316.066 27.1422 233.918C-9.59628 34.7353 340.163 -91.8638 258.046 82.5136C138.351 336.689 446.074 185.074 488.949 233.918Z" fill="#E6E6E6"/>
<path d="M464.521 248.596C518.965 310.618 361.142 400 233.618 400C106.093 400 17.8664 330.745 2.71437 248.596C-34.0241 49.4139 315.735 -77.1852 233.618 97.1922C113.923 351.367 421.646 199.753 464.521 248.596Z" fill="#3F3D56"/>
<path d="M108.306 278.664C109.15 278.664 109.833 277.96 109.833 277.091C109.833 276.223 109.15 275.519 108.306 275.519C107.463 275.519 106.78 276.223 106.78 277.091C106.78 277.96 107.463 278.664 108.306 278.664Z" fill="#E6E6E6"/>
<path d="M253.901 301.727C255.587 301.727 256.954 300.318 256.954 298.581C256.954 296.844 255.587 295.436 253.901 295.436C252.215 295.436 250.847 296.844 250.847 298.581C250.847 300.318 252.215 301.727 253.901 301.727Z" fill="#E6E6E6"/>
<path d="M193.052 245.469C193.895 245.469 194.579 244.765 194.579 243.896C194.579 243.028 193.895 242.324 193.052 242.324C192.209 242.324 191.525 243.028 191.525 243.896C191.525 244.765 192.209 245.469 193.052 245.469Z" fill="#E6E6E6"/>
<path d="M310.174 310.899C312.984 310.899 315.263 308.552 315.263 305.657C315.263 302.762 312.984 300.415 310.174 300.415C307.363 300.415 305.085 302.762 305.085 305.657C305.085 308.552 307.363 310.899 310.174 310.899Z" fill="#48BEFF"/>
<path d="M145.426 135.751C147.113 135.751 148.48 134.343 148.48 132.606C148.48 130.869 147.113 129.461 145.426 129.461C143.74 129.461 142.373 130.869 142.373 132.606C142.373 134.343 143.74 135.751 145.426 135.751Z" fill="#E6E6E6"/>
<path d="M140.342 238.656C142.028 238.656 143.395 237.248 143.395 235.511C143.395 233.773 142.028 232.365 140.342 232.365C138.655 232.365 137.288 233.773 137.288 235.511C137.288 237.248 138.655 238.656 140.342 238.656Z" fill="#E6E6E6"/>
<path d="M150.852 305.92C153.662 305.92 155.941 303.573 155.941 300.678C155.941 297.783 153.662 295.436 150.852 295.436C148.041 295.436 145.763 297.783 145.763 300.678C145.763 303.573 148.041 305.92 150.852 305.92Z" fill="#48BEFF"/>
<path d="M140.682 181.439C143.493 181.439 145.771 179.092 145.771 176.197C145.771 173.301 143.493 170.954 140.682 170.954C137.872 170.954 135.593 173.301 135.593 176.197C135.593 179.092 137.872 181.439 140.682 181.439Z" fill="#48BEFF"/>
<path d="M76.1302 103.183C37.9274 101.45 8.30677 92.9614 8.69591 83.8573C8.92921 78.3991 19.741 74.0099 38.3588 71.8158C38.4254 71.8075 38.493 71.8128 38.5576 71.8315C38.6222 71.8502 38.6826 71.8819 38.7353 71.9247C38.788 71.9676 38.8319 72.0207 38.8646 72.0811C38.8972 72.1415 38.918 72.208 38.9256 72.2767C38.9332 72.3454 38.9276 72.4149 38.909 72.4814C38.8904 72.5478 38.8593 72.6098 38.8173 72.6638C38.7754 72.7178 38.7235 72.7627 38.6647 72.7959C38.6058 72.8292 38.5412 72.8501 38.4744 72.8575C20.9364 74.9245 9.91562 79.1571 9.71273 83.9034C9.36083 92.1363 39.7967 100.486 76.1749 102.135C112.553 103.785 143.584 98.2242 143.936 89.9913C144.139 85.225 133.454 79.9964 116.048 76.3462C115.983 76.3326 115.92 76.3059 115.865 76.2674C115.809 76.229 115.761 76.1796 115.724 76.1221C115.687 76.0646 115.662 76.0002 115.649 75.9325C115.636 75.8648 115.636 75.7952 115.65 75.7276C115.663 75.66 115.689 75.5958 115.727 75.5386C115.764 75.4815 115.812 75.4325 115.868 75.3945C115.924 75.3565 115.987 75.3303 116.052 75.3173C116.118 75.3043 116.186 75.3048 116.251 75.3187C134.725 79.1932 145.187 84.5579 144.952 90.0374C144.563 99.1415 114.333 104.916 76.1302 103.183Z" fill="#48BEFF"/>
<path d="M42.2005 104.708C45.3964 110.962 50.1306 116.241 55.9294 120.019C61.7282 123.796 68.3883 125.938 75.2433 126.231C82.0984 126.525 88.9079 124.958 94.9906 121.689C101.073 118.42 106.216 113.562 109.904 107.602C87.3018 107.916 64.6998 106.95 42.2005 104.708V104.708Z" fill="#48BEFF"/>
<path d="M114.13 96.5752C116.053 90.6324 116.608 84.3099 115.749 78.1083C114.89 71.9067 112.642 65.9961 109.182 60.8443C105.722 55.6925 101.146 51.441 95.8151 48.4261C90.4844 45.4113 84.5456 43.7159 78.4688 43.4742C72.3921 43.2324 66.3441 44.451 60.8036 47.0334C55.263 49.6158 50.382 53.4911 46.5469 58.3527C42.7117 63.2143 40.0276 68.9287 38.7071 75.0436C37.3865 81.1586 37.4658 87.5062 38.9385 93.5841C63.7713 97.9266 89.0461 98.932 114.13 96.5752V96.5752Z" fill="#48BEFF"/>
<path d="M85.9215 69.5141C88.4511 69.5141 90.5017 67.4017 90.5017 64.796C90.5017 62.1903 88.4511 60.0779 85.9215 60.0779C83.3919 60.0779 81.3413 62.1903 81.3413 64.796C81.3413 67.4017 83.3919 69.5141 85.9215 69.5141Z" fill="white"/>
<path d="M62.3486 87.8575C66.5646 87.8575 69.9823 84.3368 69.9823 79.9939C69.9823 75.651 66.5646 72.1304 62.3486 72.1304C58.1327 72.1304 54.715 75.651 54.715 79.9939C54.715 84.3368 58.1327 87.8575 62.3486 87.8575Z" fill="white"/>
<path d="M177.562 80.1546C180.373 80.1546 182.651 77.8076 182.651 74.9124C182.651 72.0172 180.373 69.6702 177.562 69.6702C174.751 69.6702 172.473 72.0172 172.473 74.9124C172.473 77.8076 174.751 80.1546 177.562 80.1546Z" fill="#48BEFF"/>
<path d="M62.5478 240.571C64.2342 240.571 65.6013 239.163 65.6013 237.426C65.6013 235.689 64.2342 234.28 62.5478 234.28C60.8614 234.28 59.4943 235.689 59.4943 237.426C59.4943 239.163 60.8614 240.571 62.5478 240.571Z" fill="#E6E6E6"/>
<path d="M276.291 348.564C277.977 348.564 279.345 347.156 279.345 345.419C279.345 343.681 277.977 342.273 276.291 342.273C274.605 342.273 273.237 343.681 273.237 345.419C273.237 347.156 274.605 348.564 276.291 348.564Z" fill="#E6E6E6"/>
<path d="M77.3062 179.76C78.1494 179.76 78.833 179.056 78.833 178.187C78.833 177.319 78.1494 176.614 77.3062 176.614C76.463 176.614 75.7795 177.319 75.7795 178.187C75.7795 179.056 76.463 179.76 77.3062 179.76Z" fill="#E6E6E6"/>
<path d="M203.517 297.189C204.36 297.189 205.043 296.485 205.043 295.616C205.043 294.748 204.36 294.043 203.517 294.043C202.673 294.043 201.99 294.748 201.99 295.616C201.99 296.485 202.673 297.189 203.517 297.189Z" fill="#E6E6E6"/>
<path d="M433.036 281.986C433.879 281.986 434.563 281.282 434.563 280.413C434.563 279.545 433.879 278.841 433.036 278.841C432.193 278.841 431.509 279.545 431.509 280.413C431.509 281.282 432.193 281.986 433.036 281.986Z" fill="#E6E6E6"/>
<path d="M361.279 328.643C362.123 328.643 362.806 327.939 362.806 327.07C362.806 326.202 362.123 325.498 361.279 325.498C360.436 325.498 359.753 326.202 359.753 327.07C359.753 327.939 360.436 328.643 361.279 328.643Z" fill="#E6E6E6"/>
<path d="M286.469 272.026C287.312 272.026 287.996 271.321 287.996 270.453C287.996 269.584 287.312 268.88 286.469 268.88C285.626 268.88 284.942 269.584 284.942 270.453C284.942 271.321 285.626 272.026 286.469 272.026Z" fill="#E6E6E6"/>
<path d="M189.776 116.851C190.619 116.851 191.303 116.147 191.303 115.279C191.303 114.41 190.619 113.706 189.776 113.706C188.933 113.706 188.249 114.41 188.249 115.279C188.249 116.147 188.933 116.851 189.776 116.851Z" fill="#E6E6E6"/>
<path d="M201.99 39.2644C202.833 39.2644 203.517 38.5602 203.517 37.6916C203.517 36.823 202.833 36.1189 201.99 36.1189C201.147 36.1189 200.463 36.823 200.463 37.6916C200.463 38.5602 201.147 39.2644 201.99 39.2644Z" fill="#E6E6E6"/>
<path d="M194.865 365.864C195.708 365.864 196.392 365.16 196.392 364.291C196.392 363.423 195.708 362.719 194.865 362.719C194.022 362.719 193.338 363.423 193.338 364.291C193.338 365.16 194.022 365.864 194.865 365.864Z" fill="#E6E6E6"/>
<path d="M119.546 332.837C120.389 332.837 121.073 332.133 121.073 331.264C121.073 330.396 120.389 329.692 119.546 329.692C118.703 329.692 118.019 330.396 118.019 331.264C118.019 332.133 118.703 332.837 119.546 332.837Z" fill="#E6E6E6"/>
<path d="M358.226 276.219C359.069 276.219 359.753 275.515 359.753 274.647C359.753 273.778 359.069 273.074 358.226 273.074C357.383 273.074 356.699 273.778 356.699 274.647C356.699 275.515 357.383 276.219 358.226 276.219Z" fill="#E6E6E6"/>
<path d="M75.5092 122.566C78.0388 122.566 80.0894 120.453 80.0894 117.848C80.0894 115.242 78.0388 113.13 75.5092 113.13C72.9796 113.13 70.929 115.242 70.929 117.848C70.929 120.453 72.9796 122.566 75.5092 122.566Z" fill="white"/>
<path d="M412.255 166.157C412.126 166.414 412.017 166.682 411.929 166.958L387.611 173.918L383.229 169.501L375.893 175.442L382.913 184.039C383.48 184.733 384.251 185.22 385.109 185.425C385.967 185.63 386.867 185.542 387.673 185.176L413.941 173.231C414.832 173.868 415.89 174.211 416.975 174.213C418.06 174.216 419.12 173.878 420.014 173.245C420.908 172.612 421.593 171.713 421.979 170.669C422.365 169.625 422.434 168.484 422.175 167.399C421.916 166.313 421.343 165.335 420.532 164.593C419.72 163.852 418.708 163.383 417.632 163.248C416.555 163.113 415.463 163.319 414.503 163.839C413.543 164.358 412.759 165.167 412.255 166.157H412.255Z" fill="#FFB8B8"/>
<path d="M390.206 174.835L381.079 182.153C380.819 182.361 380.519 182.509 380.199 182.587C379.878 182.665 379.546 182.671 379.223 182.604C378.9 182.538 378.595 182.4 378.329 182.201C378.062 182.003 377.84 181.747 377.679 181.452L372.006 171.11C370.979 169.735 370.523 167.997 370.738 166.277C370.954 164.556 371.823 162.994 373.155 161.932C374.486 160.871 376.173 160.397 377.843 160.614C379.514 160.832 381.033 161.723 382.067 163.092L390.381 171.267C390.619 171.501 390.806 171.785 390.927 172.1C391.049 172.415 391.104 172.753 391.087 173.092C391.07 173.431 390.983 173.761 390.831 174.062C390.679 174.363 390.466 174.626 390.206 174.835V174.835Z" fill="#48BEFF"/>
<path d="M393.683 283.32L399.922 283.319L402.891 258.529L393.682 258.53L393.683 283.32Z" fill="#FFB8B8"/>
<path d="M392.092 281.222L404.379 281.221H404.379C405.408 281.221 406.426 281.43 407.376 281.835C408.326 282.24 409.189 282.834 409.916 283.584C410.643 284.333 411.22 285.222 411.614 286.2C412.007 287.179 412.21 288.228 412.21 289.287V289.549L392.092 289.55L392.092 281.222Z" fill="#2F2E41"/>
<path d="M409.968 281.747L416.207 281.747L419.176 256.957L409.967 256.957L409.968 281.747Z" fill="#FFB8B8"/>
<path d="M408.377 279.649L420.664 279.648H420.665C421.693 279.648 422.711 279.857 423.661 280.262C424.611 280.668 425.474 281.262 426.201 282.011C426.929 282.76 427.505 283.649 427.899 284.628C428.292 285.606 428.495 286.655 428.495 287.714V287.977L408.377 287.977L408.377 279.649Z" fill="#2F2E41"/>
<path d="M365.697 225.148C367.026 229.207 369.548 232.74 372.912 235.258C376.276 237.776 380.317 239.155 384.476 239.203L384.791 239.208C388.012 239.303 391.794 238.233 395.504 236.697C402.832 233.662 409.87 228.802 411.738 227.465L408.573 258.809L407.29 271.517C407.258 271.846 407.293 272.178 407.392 272.492C407.492 272.806 407.655 273.095 407.869 273.34C408.084 273.586 408.347 273.782 408.639 273.917C408.932 274.052 409.249 274.122 409.57 274.122H417.473C417.98 274.123 418.473 273.95 418.874 273.631C419.276 273.313 419.563 272.866 419.692 272.361L432.741 221.169C433.132 219.637 433.164 218.031 432.833 216.483C432.502 214.936 431.818 213.492 430.838 212.271C429.857 211.051 428.609 210.088 427.195 209.463C425.782 208.838 424.245 208.568 422.71 208.677L395.606 210.59L397.499 202.79L373.305 201.133L373.234 201.185C372.654 201.62 372.089 202.077 371.549 202.554C370.201 203.729 369.005 205.078 367.992 206.569C366.18 209.244 365.025 212.332 364.625 215.568C364.225 218.804 364.593 222.091 365.697 225.148Z" fill="#2F2E41"/>
<path d="M365.697 225.148C367.026 229.207 369.548 232.74 372.912 235.258C376.276 237.776 380.317 239.155 384.476 239.203C388.452 237.13 392.289 234.785 395.962 232.184L395.504 236.697L391.514 276.235C391.482 276.564 391.516 276.896 391.616 277.21C391.716 277.524 391.878 277.813 392.093 278.059C392.308 278.304 392.57 278.5 392.863 278.635C393.156 278.77 393.473 278.84 393.794 278.841H401.697C402.204 278.841 402.697 278.668 403.098 278.349C403.5 278.031 403.787 277.584 403.916 277.079L408.573 258.809L416.965 225.887C417.356 224.355 417.387 222.749 417.057 221.202C416.726 219.654 416.042 218.211 415.061 216.99C414.081 215.769 412.833 214.806 411.419 214.181C410.006 213.556 408.468 213.286 406.934 213.395L379.829 215.308L381.722 207.508L367.992 206.569C366.18 209.244 365.025 212.332 364.625 215.568C364.225 218.804 364.593 222.091 365.697 225.148V225.148Z" fill="#2F2E41"/>
<path d="M371.515 204.362L371.333 204.34L367.111 182.959C367.075 182.773 363.624 164.331 374.204 154.689L374.388 153.37C374.435 153.032 374.553 152.709 374.733 152.423C374.913 152.136 375.151 151.894 375.431 151.712C375.711 151.529 376.026 151.412 376.355 151.367C376.683 151.322 377.017 151.351 377.333 151.452L387.3 154.637C387.864 154.816 388.339 155.213 388.626 155.745C388.912 156.277 388.988 156.902 388.836 157.49L387.868 161.286C389.211 162.911 405.025 182.524 399.517 197.634L397.05 207.57L371.515 204.362Z" fill="#48BEFF"/>
<path d="M412.9 187.675C412.661 187.83 412.435 188.003 412.223 188.194L387.848 181.454L386.254 175.355L377.005 176.629L378.807 187.708C378.953 188.603 379.376 189.426 380.014 190.052C380.652 190.678 381.47 191.074 382.345 191.18L410.86 194.65C411.313 195.665 412.055 196.515 412.988 197.085C413.921 197.655 415.001 197.919 416.083 197.842C417.165 197.765 418.199 197.35 419.047 196.653C419.895 195.956 420.516 195.009 420.829 193.939C421.142 192.869 421.131 191.727 420.798 190.663C420.466 189.6 419.826 188.666 418.965 187.986C418.104 187.306 417.063 186.912 415.98 186.856C414.896 186.801 413.822 187.086 412.9 187.675H412.9Z" fill="#FFB8B8"/>
<path d="M386.909 181.356L375.437 182.878C375.111 182.922 374.779 182.892 374.465 182.791C374.151 182.691 373.861 182.522 373.616 182.295C373.371 182.069 373.176 181.791 373.045 181.48C372.913 181.169 372.849 180.833 372.855 180.494L373.074 168.618C372.868 166.896 373.333 165.161 374.368 163.792C375.402 162.424 376.921 161.533 378.592 161.317C380.263 161.1 381.948 161.575 383.28 162.637C384.611 163.699 385.479 165.261 385.694 166.982L388.82 178.376C388.909 178.702 388.93 179.044 388.879 179.379C388.828 179.714 388.708 180.034 388.527 180.317C388.345 180.6 388.107 180.839 387.828 181.018C387.549 181.198 387.235 181.313 386.909 181.356V181.356Z" fill="#48BEFF"/>
<path d="M383.68 148.55C390.583 148.55 396.179 142.786 396.179 135.674C396.179 128.563 390.583 122.799 383.68 122.799C376.776 122.799 371.18 128.563 371.18 135.674C371.18 142.786 376.776 148.55 383.68 148.55Z" fill="#FFB8B8"/>
<path d="M383.022 136.75L381.457 133.814C378.493 146.256 383.729 156.552 383.729 156.552L363.407 146.801L363.6 143.341L361.589 145.692L358.7 144.051L358.318 141.807L356.137 142.364L364.099 127.482C371.825 113.321 383.058 118.727 383.058 118.727C400.929 117.852 398.746 136.014 398.746 136.014L383.022 136.75Z" fill="#2F2E41"/>
<path d="M240.736 232.702C243.618 230.799 240.113 219.87 232.908 208.292C225.703 196.715 217.526 188.872 214.644 190.775C211.762 192.678 215.267 203.606 222.472 215.184C229.677 226.762 237.854 234.605 240.736 232.702Z" fill="#3F3D56"/>
<path d="M407.939 182.444L420.145 191.269L432.074 171.08L419.634 161.776L407.939 182.444Z" fill="#3F3D56"/>
<path d="M429.441 172.025L415.731 165.576C416.118 163.893 419.477 163.66 419.477 163.66L430.537 170.425C430.922 170.661 431.269 170.947 431.567 171.276V171.276L429.441 172.025Z" fill="#F2F2F2"/>
<path d="M430.014 171.293L414.498 164.432L403.482 189.326L419.428 195.089C420.887 195.29 422.077 194.086 422.077 194.086L432.161 171.004L430.014 171.293Z" fill="#3F3D56"/>
<path d="M416.684 167.05L416.588 167.255L426.399 171.278L426.496 171.073L416.684 167.05Z" fill="#F92665"/>
<path d="M427.052 173.274L418.925 192.145L419.126 192.217L427.253 173.346L427.052 173.274Z" fill="#F92665"/>
<path d="M407.375 188.465L407.276 188.668L417.727 193.092L417.826 192.889L407.375 188.465Z" fill="#F92665"/>
<path d="M415.103 167.693L406.52 186.395L406.719 186.472L415.302 167.77L415.103 167.693Z" fill="#F92665"/>
<path d="M418.107 163.733L418.034 163.851L430.564 170.861L430.638 170.743L418.107 163.733Z" fill="#B3B3B3"/>
<path d="M417.233 164.009L417.161 164.129L430.184 171.083L430.256 170.963L417.233 164.009Z" fill="#B3B3B3"/>
<path d="M416.571 164.35L416.503 164.472L429.915 171.145L429.983 171.023L416.571 164.35Z" fill="#B3B3B3"/>
</g>
<defs>
<clipPath id="clip0">
<rect width="500" height="400" fill="white"/>
</clipPath>
</defs>
</svg>
