<svg width="791" height="520" viewBox="0 0 791 520" fill="none" xmlns="http://www.w3.org/2000/svg">
<g clip-path="url(#clip0)">
<path d="M779.715 210.062C750.69 90.1427 650.401 3.57771 532.684 0.105672C470.45 -1.72989 404.963 19.957 357.283 95.8475C272.051 231.51 362.521 325.257 425.594 369.804C456.066 391.368 483.523 417.298 507.17 446.842C549.774 499.963 631.734 565.972 729.345 462.545C800.094 387.581 799.048 289.94 779.715 210.062Z" fill="#FFEEC9"/>
<path d="M91.9562 258.913C91.148 255.336 90.4451 251.657 89.8675 247.979L91.2368 247.424C91.8071 251.053 92.5003 254.683 93.2978 258.211L91.9562 258.913ZM88.4775 236.762C88.1334 233.001 87.9041 229.158 87.7957 225.341L89.1935 225.092C89.3 228.858 89.5261 232.649 89.8656 236.359L88.4775 236.762ZM87.8266 213.793C87.9545 209.954 88.203 206.054 88.5647 202.2L89.9523 202.261C89.5948 206.064 89.3499 209.912 89.2236 213.7L87.8266 213.793ZM91.3663 190.85L89.9983 190.636C90.5886 186.805 91.3004 182.951 92.1135 179.183L93.454 179.549C92.6514 183.268 91.949 187.07 91.3663 190.85ZM96.2078 168.431L94.9051 167.914C95.943 164.212 97.1049 160.509 98.3587 156.907L99.6153 157.573C98.378 161.126 97.2317 164.779 96.2078 168.431ZM103.655 147.049L102.454 146.239C103.918 142.761 105.503 139.309 107.165 135.977L108.303 136.926C106.662 140.212 105.099 143.618 103.655 147.049ZM292.723 164.516C292.124 160.901 291.401 157.286 290.575 153.773L291.913 153.053C292.75 156.615 293.482 160.278 294.09 163.942L292.723 164.516ZM113.521 127.28L112.455 126.2C114.301 123.045 116.263 119.94 118.285 116.972L119.273 118.176C117.278 121.104 115.343 124.167 113.521 127.28ZM287.758 143.389C286.713 140.011 285.547 136.662 284.291 133.436L285.543 132.44C286.816 135.71 287.998 139.104 289.056 142.528L287.758 143.389ZM125.517 109.672L124.613 108.354C126.793 105.6 129.075 102.925 131.397 100.401L132.21 101.825C129.919 104.315 127.667 106.955 125.517 109.672ZM280.201 123.978C278.743 120.926 277.167 117.931 275.517 115.077L276.65 113.833C278.322 116.726 279.92 119.761 281.398 122.854L280.201 123.978ZM139.307 94.6858L138.59 93.1655C141.039 90.8886 143.581 88.712 146.142 86.6965L146.759 88.3033C144.231 90.2921 141.724 92.4394 139.307 94.6858ZM270.269 106.793C268.437 104.152 266.493 101.592 264.493 99.1846L265.477 97.7254C267.505 100.166 269.474 102.76 271.331 105.437L270.269 106.793ZM154.517 82.7218L154.005 81.0394C156.663 79.2993 159.395 77.6826 162.126 76.234L162.528 77.9813C159.834 79.4101 157.139 81.0052 154.517 82.7218ZM258.225 92.3032C256.064 90.1423 253.804 88.0885 251.508 86.199L252.315 84.5631C254.643 86.4788 256.934 88.5606 259.124 90.7504L258.225 92.3032ZM170.74 74.1161L170.449 72.3164C173.24 71.1664 176.09 70.1565 178.919 69.3151L179.095 71.1556C176.304 71.9854 173.493 72.9814 170.74 74.1161ZM244.384 80.9153C241.959 79.3032 239.442 77.815 236.904 76.4925L237.511 74.7247C240.084 76.065 242.635 77.5732 245.095 79.2077L244.384 80.9153ZM187.544 69.1189L187.484 67.2508C190.332 66.7233 193.224 66.3492 196.079 66.1378L196.024 68.0211C193.207 68.2297 190.354 68.5989 187.544 69.1189ZM229.117 72.9605C226.493 71.9404 223.789 71.0587 221.08 70.3405L221.472 68.4882C224.218 69.2165 226.959 70.1097 229.618 71.144L229.117 72.9605ZM204.476 67.8651L204.646 65.9796C207.475 66.084 210.337 66.3507 213.129 66.7662L212.848 68.6416C210.091 68.2304 207.268 67.9686 204.476 67.8651Z" fill="#3F3D56"/>
<path d="M299.319 165.847L298.036 165.644C298.238 161.407 298.536 157.133 298.922 152.942L300.195 153.294C299.813 157.435 299.518 161.659 299.319 165.847ZM301.621 140.893L300.366 140.394C300.937 136.258 301.609 132.11 302.361 128.064L303.593 128.71C302.849 132.708 302.186 136.807 301.621 140.893ZM306.103 116.797L304.902 116.008C305.833 112.064 306.865 108.125 307.971 104.301L309.136 105.228C308.044 109.007 307.023 112.899 306.103 116.797ZM312.674 94.0629L311.551 93.0027C312.82 89.3318 314.19 85.687 315.622 82.1701L316.697 83.3573C315.282 86.8329 313.928 90.4348 312.674 94.0629ZM490.032 72.0618C488.375 68.7879 486.628 65.5708 484.839 62.4998L485.762 61.0653C487.573 64.173 489.341 67.4277 491.018 70.7402L490.032 72.0618ZM321.183 73.1649L320.161 71.8567C321.744 68.5237 323.42 65.2457 325.144 62.1138L326.108 63.5358C324.404 66.6315 322.747 69.8712 321.183 73.1649ZM479.248 53.5534C477.328 50.6897 475.324 47.9023 473.289 45.2678L474.075 43.6302C476.135 46.295 478.163 49.1159 480.106 52.0131L479.248 53.5534ZM331.447 54.5188L330.545 52.99C332.404 50.07 334.353 47.2234 336.337 44.5304L337.17 46.1578C335.209 48.8196 333.283 51.6324 331.447 54.5188ZM466.991 37.6863C464.847 35.2902 462.626 32.9898 460.387 30.8488L461.021 29.0401C463.286 31.2063 465.535 33.534 467.703 35.9585L466.991 37.6863ZM343.251 38.4969L342.49 36.7791C344.588 34.3291 346.77 31.9737 348.974 29.7777L349.658 31.5778C347.48 33.7483 345.325 36.0761 343.251 38.4969ZM453.508 24.7934C451.182 22.9155 448.788 21.1528 446.39 19.5528L446.858 17.6091C449.284 19.2276 451.707 21.012 454.061 22.912L453.508 24.7934ZM356.36 25.4374L355.755 23.5641C358.052 21.6366 360.422 19.8224 362.8 18.1723L363.322 20.1095C360.972 21.7401 358.63 23.5329 356.36 25.4374ZM439.069 15.1573C436.613 13.8421 434.094 12.6552 431.583 11.6298L431.873 9.59145C434.414 10.6286 436.964 11.8299 439.449 13.1606L439.069 15.1573ZM370.508 15.6225L370.073 13.6316C372.521 12.2683 375.034 11.034 377.543 9.96286L377.891 11.9973C375.411 13.0556 372.927 14.2752 370.508 15.6225ZM423.973 8.9914C421.431 8.26428 418.841 7.67859 416.277 7.25008L416.383 5.15915C418.979 5.59282 421.599 6.18521 424.171 6.9206L423.973 8.9914ZM385.424 9.25681L385.167 7.1891C387.716 6.41923 390.319 5.79118 392.903 5.32161L393.069 7.41129C390.515 7.87476 387.943 8.49563 385.424 9.25681ZM408.535 6.40885C405.956 6.2788 403.338 6.29774 400.785 6.46298L400.709 4.36265C403.293 4.19539 405.942 4.17545 408.55 4.30809L408.535 6.40885Z" fill="#3F3D56"/>
<path d="M515.672 95.0872C515.299 93.6927 514.896 92.2851 514.475 90.9025L515.803 90.4561C516.229 91.8548 516.637 93.2792 517.015 94.6901L515.672 95.0872Z" fill="#3F3D56"/>
<path d="M510.287 129.145L440.443 202.531L441.429 203.567L511.273 130.181L510.287 129.145Z" fill="#3F3D56"/>
<path d="M422.854 213.489H305.556V214.954H422.854V213.489Z" fill="#3F3D56"/>
<path d="M289.434 218.092L218.622 292.495L219.527 293.446L290.339 219.043L289.434 218.092Z" fill="#3F3D56"/>
<path d="M198.71 301.958H120.318V303.423H198.71V301.958Z" fill="#3F3D56"/>
<path d="M99.0081 311.232L21.1089 393.082L22.0949 394.118L99.9941 312.268L99.0081 311.232Z" fill="#3F3D56"/>
<path d="M210.904 316.236C208.355 316.236 205.862 315.441 203.742 313.953C201.622 312.465 199.97 310.349 198.994 307.874C198.018 305.399 197.763 302.675 198.26 300.048C198.758 297.42 199.986 295.007 201.788 293.112C203.591 291.218 205.888 289.928 208.389 289.405C210.89 288.882 213.482 289.151 215.838 290.176C218.193 291.201 220.207 292.937 221.623 295.165C223.04 297.392 223.796 300.011 223.796 302.69C223.792 306.282 222.433 309.725 220.016 312.264C217.599 314.804 214.322 316.232 210.904 316.236ZM210.904 290.61C208.63 290.61 206.407 291.319 204.517 292.646C202.626 293.973 201.152 295.86 200.282 298.067C199.412 300.275 199.184 302.704 199.628 305.047C200.072 307.39 201.167 309.543 202.775 311.232C204.382 312.922 206.431 314.072 208.661 314.539C210.892 315.005 213.203 314.765 215.304 313.851C217.405 312.937 219.201 311.388 220.464 309.402C221.727 307.415 222.402 305.08 222.402 302.69C222.398 299.488 221.186 296.417 219.03 294.152C216.875 291.888 213.953 290.614 210.904 290.61Z" fill="#3F3D56"/>
<path d="M435.048 227.767C432.498 227.767 430.005 226.972 427.886 225.484C425.766 223.995 424.113 221.88 423.137 219.405C422.162 216.93 421.907 214.206 422.404 211.579C422.901 208.951 424.129 206.538 425.932 204.643C427.735 202.749 430.032 201.459 432.533 200.936C435.033 200.414 437.625 200.682 439.981 201.707C442.337 202.732 444.35 204.468 445.767 206.696C447.183 208.923 447.939 211.542 447.939 214.221C447.936 217.812 446.576 221.256 444.159 223.795C441.742 226.334 438.466 227.763 435.048 227.767ZM435.048 202.141C432.774 202.141 430.551 202.85 428.66 204.177C426.77 205.505 425.296 207.391 424.426 209.599C423.556 211.806 423.328 214.235 423.772 216.578C424.215 218.922 425.31 221.074 426.918 222.763C428.526 224.453 430.575 225.603 432.805 226.069C435.035 226.536 437.347 226.296 439.448 225.382C441.548 224.468 443.344 222.919 444.607 220.933C445.871 218.946 446.545 216.61 446.545 214.221C446.541 211.018 445.329 207.948 443.174 205.683C441.018 203.419 438.096 202.145 435.048 202.141V202.141Z" fill="#3F3D56"/>
<path d="M12.8919 416.298C10.3421 416.298 7.84957 415.503 5.72949 414.015C3.60941 412.527 1.95698 410.411 0.981186 407.936C0.00538753 405.461 -0.249961 402.737 0.247432 400.11C0.744825 397.482 1.97262 395.068 3.77555 393.174C5.57848 391.28 7.87557 389.99 10.3763 389.467C12.8771 388.944 15.4692 389.212 17.8249 390.238C20.1806 391.263 22.194 392.999 23.6106 395.227C25.0272 397.454 25.7833 400.073 25.7833 402.752C25.7794 406.343 24.42 409.786 22.0032 412.326C19.5865 414.865 16.3097 416.294 12.8919 416.298ZM12.8919 390.672C10.6179 390.672 8.39499 391.38 6.50424 392.708C4.61348 394.035 3.1398 395.922 2.26955 398.129C1.3993 400.336 1.17156 402.765 1.61515 405.109C2.05873 407.452 3.15371 409.605 4.76162 411.294C6.36952 412.984 8.41813 414.134 10.6484 414.6C12.8786 415.066 15.1904 414.827 17.2912 413.913C19.3921 412.999 21.1877 411.45 22.4511 409.464C23.7144 407.477 24.3887 405.141 24.3887 402.752C24.3853 399.549 23.1729 396.479 21.0176 394.214C18.8622 391.95 15.94 390.676 12.8919 390.672Z" fill="#3F3D56"/>
<path d="M749.349 518.21H433.119V520H749.349V518.21Z" fill="#2F2E41"/>
<path d="M694.072 53.0648C689.155 68.3587 681.617 82.2937 666.254 82.2937C650.89 82.2937 639.301 69.1818 638.435 53.0648C637.329 32.4704 650.536 23.7505 666.254 23.8358C684.822 23.9366 699.906 34.9146 694.072 53.0648Z" fill="#2F2E41"/>
<path d="M693.34 50.7573H638.435V123.83H693.34V50.7573Z" fill="#2F2E41"/>
<path d="M694.952 105.197H699.622C699.622 105.197 711.037 120.462 705.848 141.18C700.66 161.897 704.811 165.714 704.811 165.714C704.811 165.714 711.566 188.149 704.301 221.951C697.037 255.753 711.037 264.94 711.037 264.94L698.065 237.68L690.801 165.714L694.952 105.197Z" fill="#FFD781"/>
<path opacity="0.1" d="M694.952 106.99H699.622C699.622 106.99 711.037 122.256 705.848 142.973C700.66 163.691 704.811 167.507 704.811 167.507C704.811 167.507 711.566 189.942 704.301 223.745C697.037 257.547 711.037 266.733 711.037 266.733L698.065 239.473L690.801 167.507L694.952 106.99Z" fill="black"/>
<path d="M678.607 78.7543C678.607 78.7543 674.456 96.2006 676.531 96.2006C678.607 96.2006 685.871 105.469 685.871 105.469L690.541 123.461L686.909 136.545L674.456 133.819L658.889 115.828L654.219 110.921L650.068 95.1102C650.068 95.1102 655.257 88.5678 651.625 83.1159C647.993 77.6639 678.607 78.7543 678.607 78.7543Z" fill="#FBBEBE"/>
<path opacity="0.1" d="M678.607 78.7543C678.607 78.7543 674.456 96.2006 676.531 96.2006C678.607 96.2006 685.871 105.469 685.871 105.469L690.541 123.461L686.909 136.545L674.456 133.819L658.889 115.828L654.219 110.921L650.068 95.1102C650.068 95.1102 655.257 88.5678 651.625 83.1159C647.993 77.6639 678.607 78.7543 678.607 78.7543Z" fill="black"/>
<path d="M553.037 127.277L541.622 107.65C541.622 107.65 529.299 79.0027 520.478 89.3615C511.657 99.7203 533.839 120.735 533.839 120.735L545.254 136.545L553.037 127.277Z" fill="#FBBEBE"/>
<path d="M704.551 297.924L696.249 361.712C696.249 361.712 697.287 366.619 686.909 384.61C676.531 402.602 648.512 441.856 648.512 441.856L640.21 425.5C640.21 425.5 650.068 373.706 667.191 362.802L665.116 284.294L704.551 297.924Z" fill="#FBBEBE"/>
<path opacity="0.1" d="M704.551 297.924L696.249 361.712C696.249 361.712 697.287 366.619 686.909 384.61C676.531 402.602 648.512 441.856 648.512 441.856L640.21 425.5C640.21 425.5 650.068 373.706 667.191 362.802L665.116 284.294L704.551 297.924Z" fill="black"/>
<path d="M640.21 418.958L651.625 441.856C651.625 441.856 642.285 469.661 645.917 472.387C649.549 475.113 654.219 499.647 644.361 496.921C634.502 494.195 626.719 483.291 626.719 481.656C626.719 480.02 632.426 457.122 629.313 451.67C626.2 446.218 624.124 444.582 624.124 444.582L616.341 458.212L613.747 456.577L626.719 433.678C626.719 433.678 628.275 429.317 634.502 426.591L640.21 418.958Z" fill="#2F2E41"/>
<path opacity="0.1" d="M640.21 418.958L651.625 441.856C651.625 441.856 642.285 469.661 645.917 472.387C649.549 475.113 654.219 499.647 644.361 496.921C634.502 494.195 626.719 483.291 626.719 481.656C626.719 480.02 632.426 457.122 629.313 451.67C626.2 446.218 624.124 444.582 624.124 444.582L616.341 458.212L613.747 456.577L626.719 433.678C626.719 433.678 628.275 429.317 634.502 426.591L640.21 418.958Z" fill="black"/>
<path d="M665.237 288.874C665.237 288.874 669.267 349.173 660.446 364.984V443.492L648.512 445.128C648.512 445.128 624.411 403.563 633.232 362.673C642.053 321.784 624.124 284.294 624.124 284.294L665.237 288.874Z" fill="#FBBEBE"/>
<path d="M662.262 92.1116C674.298 92.1116 684.055 81.8597 684.055 69.2133C684.055 56.5669 674.298 46.3149 662.262 46.3149C650.226 46.3149 640.469 56.5669 640.469 69.2133C640.469 81.8597 650.226 92.1116 662.262 92.1116Z" fill="#FBBEBE"/>
<path d="M684.315 129.458L662.522 100.562L650.068 91.8391L644.88 98.9267L630.351 103.288C630.351 103.288 621.011 105.469 611.152 117.463C601.293 129.458 583.651 136.545 583.651 136.545L569.123 133.819C569.123 133.819 552 125.641 552 123.461C552 121.28 536.952 138.181 540.584 144.723C544.216 151.266 552 159.444 556.151 163.805C560.302 168.167 561.858 180.706 587.284 176.89C612.709 173.074 622.049 159.989 622.049 159.989C622.049 159.989 626.719 185.068 640.21 189.975C653.701 194.882 697.806 198.153 697.806 198.153L707.146 165.441C707.146 165.441 717.523 151.266 703.513 130.548C703.513 130.548 703.244 118.961 701.738 111.251C701.152 108.252 700.379 105.84 699.362 104.924C695.73 101.653 676.531 96.2007 676.531 96.2007C676.531 96.2007 679.645 107.105 681.201 107.65C682.758 108.195 686.39 126.732 684.315 129.458Z" fill="#FFD781"/>
<path d="M614.525 292.199C640.656 290.291 655.869 294.789 662.656 298.218C663.918 298.818 665.106 299.576 666.195 300.475C666.693 300.917 666.932 301.26 666.932 301.468C666.932 303.103 702.735 306.374 715.707 303.103C728.679 299.832 706.886 229.502 701.178 223.504C695.471 217.507 698.548 195.557 698.548 195.557C698.548 195.557 687.169 192.973 684.055 194.064C680.942 195.154 664.857 192.428 659.149 189.157C653.441 185.886 646.177 188.066 641.507 186.976C639.421 186.491 638.368 187.309 637.843 188.366C637.028 189.953 635.796 191.26 634.294 192.134C623.278 198.801 614.437 244.903 607.779 270.391C600.515 298.196 614.525 292.199 614.525 292.199Z" fill="#2F2E41"/>
<path d="M662.522 438.585L664.597 450.58C664.597 450.58 675.494 466.935 672.38 480.565C672.38 480.565 674.975 498.557 684.315 503.464C693.654 508.371 685.871 519.82 677.05 519.274C668.229 518.729 659.927 519.82 658.889 517.094C657.852 514.368 651.625 487.653 651.625 487.653L649.922 518.915L644.733 519.46L646.436 483.291C646.436 483.291 642.285 475.113 647.993 461.484L646.552 440.562C646.552 440.562 660.965 444.037 662.522 438.585Z" fill="#2F2E41"/>
<path opacity="0.1" d="M662.656 298.219C663.918 298.819 665.106 299.576 666.195 300.476C666.47 295.324 668.058 264.166 666.154 264.667L662.656 298.219Z" fill="black"/>
<path d="M653.24 37.6811C653.24 37.6811 652.999 36.2694 643.56 39.9886C634.121 43.7078 628.462 71.1541 633.182 87.2707C635.084 93.7656 633.537 98.4485 631.011 101.725C621.535 114.02 625.265 132.488 639.069 138.811C639.458 138.989 639.856 139.165 640.261 139.34L646.161 143.059C646.161 143.059 638.64 132.662 642.404 119.361C645.672 108.029 646.076 95.998 643.575 84.452C643.143 82.5043 642.653 80.4966 642.096 78.4477C637.376 61.0913 639.671 63.0958 656.19 45.7394C656.19 45.7394 665.629 53.1778 673.889 56.897C682.148 60.6163 689.227 64.3355 683.328 76.7329C677.428 89.1303 663.27 100.288 672.709 116.405C682.148 132.521 683.328 126.323 682.148 132.521L680.968 138.72L688.047 131.281L683.328 141.199C683.328 141.199 698.667 141.199 703.386 128.802L705.746 131.281C705.746 131.281 715.185 113.925 697.487 97.8085C697.487 97.8085 691.587 94.0892 699.846 81.6918C708.106 69.2944 701.763 42.64 691.143 37.681C680.524 32.7221 653.24 37.6811 653.24 37.6811Z" fill="#2F2E41"/>
<path d="M666.253 29.9893C672.318 29.9893 677.234 24.8237 677.234 18.4516C677.234 12.0794 672.318 6.91382 666.253 6.91382C660.189 6.91382 655.273 12.0794 655.273 18.4516C655.273 24.8237 660.189 29.9893 666.253 29.9893Z" fill="#2F2E41"/>
<path d="M653.076 12.2982C653.077 9.43809 654.088 6.67997 655.914 4.55887C657.74 2.43776 660.251 1.10488 662.959 0.818762C662.598 0.781062 662.232 0.760498 661.861 0.760498C658.949 0.760498 656.156 1.97608 654.097 4.13982C652.037 6.30357 650.88 9.23824 650.88 12.2982C650.88 15.3582 652.037 18.2929 654.097 20.4567C656.156 22.6204 658.949 23.836 661.861 23.836C662.232 23.836 662.598 23.8154 662.959 23.7777C660.251 23.4916 657.74 22.1587 655.914 20.0376C654.088 17.9165 653.077 15.1584 653.076 12.2982Z" fill="#2F2E41"/>
<path d="M276.209 178.963C276.209 178.963 290.671 175.591 295.49 164.21H305.614V223.224H292.599V180.649C292.599 180.649 282.895 188.658 273.255 189.08L276.209 178.963Z" fill="#FFCB5C"/>
<path opacity="0.1" d="M276.209 178.963C276.209 178.963 290.671 175.591 295.49 164.21H305.614V223.224H292.599V180.649C292.599 180.649 282.895 188.658 273.255 189.08L276.209 178.963Z" fill="black"/>
<path d="M273.255 178.963C273.255 178.963 287.717 175.591 292.536 164.21H302.659V223.224H289.645V180.649C289.645 180.649 282.895 188.658 273.255 189.08V178.963Z" fill="#FFCB5C"/>
<path d="M479.925 93.3765L491.328 95.1775C491.328 95.1775 491.452 82.8911 501.476 85.642C506.487 87.0174 507.366 90.5603 506.994 93.7602C506.604 96.8447 505.116 99.701 502.785 101.84C496.047 108.119 476.314 127.458 478.117 136.652L517.86 137.054L517.968 126.449L494.899 126.216C494.899 126.216 536.125 93.4861 510.269 78.4987C505.719 75.8627 500.374 74.6896 495.146 75.5645C488.914 76.6079 481.469 80.5937 479.925 93.3765Z" fill="#FFCB5C"/>
<path opacity="0.1" d="M479.925 93.3765L491.328 95.1775C491.328 95.1775 491.452 82.8911 501.476 85.642C506.487 87.0174 507.366 90.5603 506.994 93.7602C506.604 96.8447 505.116 99.701 502.785 101.84C496.047 108.119 476.314 127.458 478.117 136.652L517.86 137.054L517.968 126.449L494.899 126.216C494.899 126.216 536.125 93.4861 510.269 78.4987C505.719 75.8627 500.374 74.6896 495.146 75.5645C488.914 76.6079 481.469 80.5937 479.925 93.3765Z" fill="black"/>
<path d="M477.125 93.3482L488.532 94.7883C488.532 94.7883 488.653 82.8628 498.677 85.6137C503.688 86.9891 504.566 90.532 504.194 93.7319C503.804 96.8163 502.316 99.6727 499.986 101.811C493.247 108.091 473.514 127.429 475.318 136.624L515.061 137.025L515.168 126.421L492.099 126.188C492.099 126.188 533.325 93.4578 507.47 78.4704C502.919 75.8344 497.574 74.6613 492.346 75.5362C486.114 76.5796 478.669 80.5653 477.125 93.3482Z" fill="#FFCB5C"/>
<path d="M104.132 255.724C96.8185 255.724 83.7963 258.718 83.7963 285.658C83.7963 312.171 96.8185 315.592 104.132 315.592C111.446 315.592 124.942 313.459 124.942 286.514C124.942 257.862 111.446 255.724 104.132 255.724ZM104.212 305.614C99.3363 305.614 96.5653 303.334 96.5653 285.658C96.5653 267.699 99.3363 265.702 104.212 265.702C109.087 265.702 112.646 267.412 112.646 286.514C112.646 304.473 109.087 305.614 104.212 305.614Z" fill="#FFCB5C"/>
<path opacity="0.1" d="M104.132 255.724C96.8185 255.724 83.7963 258.718 83.7963 285.658C83.7963 312.171 96.8185 315.592 104.132 315.592C111.446 315.592 124.942 313.459 124.942 286.514C124.942 257.862 111.446 255.724 104.132 255.724ZM104.212 305.614C99.3363 305.614 96.5653 303.334 96.5653 285.658C96.5653 267.699 99.3363 265.702 104.212 265.702C109.087 265.702 112.646 267.412 112.646 286.514C112.646 304.473 109.087 305.614 104.212 305.614Z" fill="black"/>
<path d="M101.234 255.724C93.9199 255.724 80.8977 258.718 80.8977 285.658C80.8977 312.171 93.9199 315.592 101.234 315.592C108.548 315.592 122.043 313.459 122.043 286.514C122.043 257.862 108.548 255.724 101.234 255.724ZM101.313 305.614C96.4378 305.614 93.6668 303.334 93.6668 285.658C93.6668 267.699 96.4378 265.702 101.313 265.702C106.188 265.702 109.748 267.412 109.748 286.514C109.748 304.473 106.188 305.614 101.313 305.614Z" fill="#FFCB5C"/>
<path d="M278.368 324.561C290.722 324.561 300.736 313.921 300.736 300.796C300.736 287.67 290.722 277.03 278.368 277.03C266.015 277.03 256 287.67 256 300.796C256 313.921 266.015 324.561 278.368 324.561Z" fill="#E6E6E6"/>
<path d="M333.188 331.336L309.813 306.501C311.605 303.54 312.819 300.226 313.384 296.758C313.948 293.289 313.852 289.735 313.1 286.307C312.348 282.878 310.957 279.645 309.007 276.799C307.058 273.952 304.591 271.55 301.752 269.735C296.406 266.342 290.056 265.206 283.959 266.552C277.862 267.897 272.463 271.627 268.832 277.001C265.49 281.979 263.885 288.039 264.293 294.138C264.7 300.237 267.095 305.995 271.066 310.422C275.036 314.848 280.334 317.667 286.048 318.393C291.763 319.119 297.537 317.708 302.377 314.401L325.753 339.237C326.739 340.283 328.076 340.871 329.47 340.871C330.864 340.87 332.201 340.282 333.186 339.234C334.172 338.187 334.726 336.767 334.726 335.286C334.727 333.805 334.173 332.384 333.188 331.336ZM301.505 305.573C298.608 308.651 294.797 310.566 290.721 310.993C286.645 311.419 282.555 310.331 279.149 307.913C275.743 305.495 273.232 301.898 272.043 297.733C270.854 293.568 271.061 289.095 272.628 285.074C274.196 281.053 277.027 277.734 280.639 275.683C284.252 273.631 288.422 272.974 292.439 273.823C296.457 274.672 300.073 276.975 302.671 280.339C305.27 283.703 306.69 287.92 306.69 292.272C306.693 294.743 306.236 297.19 305.347 299.473C304.457 301.755 303.151 303.829 301.505 305.573Z" fill="#3F3D56"/>
</g>
<defs>
<clipPath id="clip0">
<rect width="791" height="520" fill="white"/>
</clipPath>
</defs>
</svg>
