<svg width="680" height="470" viewBox="0 0 680 470" fill="none" xmlns="http://www.w3.org/2000/svg">
<g id="unit__image" clip-path="url(#clip0)">
<path id="Vector" opacity="0.1" d="M589.27 470C610.854 470 628.352 465.442 628.352 459.82C628.352 454.198 610.854 449.64 589.27 449.64C567.686 449.64 550.189 454.198 550.189 459.82C550.189 465.442 567.686 470 589.27 470Z" fill="#F92665"/>
<path id="Vector_2" opacity="0.1" d="M658.681 418.669C643.812 430.772 622.653 435.782 602.191 438.945L598.747 439.461C577.374 442.588 555.763 444.254 534.079 445.267C522.477 445.818 510.875 446.207 499.273 446.555L490.18 446.818C478.375 447.162 466.546 447.499 454.696 447.831C443.094 448.155 431.491 448.458 419.889 448.742C405.03 449.097 390.171 449.393 375.312 449.629C363.71 449.808 352.108 449.932 340.506 450C325.643 450.084 310.784 450.056 295.929 449.916C284.318 449.8 272.716 449.601 261.122 449.317C246.255 448.941 231.396 448.392 216.545 447.669C206.466 447.186 196.392 446.605 186.325 445.926L181.739 445.608C138.523 442.552 94.5327 437.07 56.7156 419.742L55.6958 419.268C55.189 419.035 54.6821 418.801 54.1753 418.555C47.2318 415.298 40.5807 411.472 34.2928 407.117C23.1119 399.292 13.879 389.741 8.99995 378.41C1.35471 360.639 5.39716 340.662 14.1294 323.286C22.8615 305.91 35.972 290.224 47.3117 273.86C50.6336 269.067 53.7845 264.094 56.7156 258.995C75.0349 227.017 84.1212 190.011 64.9165 159.196C62.3816 155.267 59.6444 151.467 56.7156 147.811C52.0319 141.82 47.2689 135.828 44.0508 129.195C36.5461 113.76 38.1581 96.4021 40.8938 79.9127C44.5577 57.9889 51.2748 34.3753 72.2687 20.6782C94.0503 6.45371 124.967 7.17272 152 12.2897C194.031 20.1928 232.825 36.7361 271.985 51.6556C311.146 66.5751 352.169 80.2183 395.225 81.6863C404.475 81.9969 413.735 81.6665 422.936 80.6977C435.204 79.4607 447.304 76.9604 459.038 73.2379C475.983 67.7614 491.402 59.5228 502.833 48.0725C527.35 23.5961 573.423 21.7447 606.642 36.5264C638.341 50.631 658.84 80.482 657.326 110.297C655.604 143.485 630.274 170.772 607.063 198.759C604.248 202.151 601.47 205.554 598.765 208.981C597.255 210.895 595.773 212.812 594.319 214.733C591.773 218.125 589.312 221.534 586.992 224.985C575.133 242.679 566.749 263.932 574.913 283.034C579.493 293.729 588.231 301.89 598.765 309.014C622.366 324.97 654.944 335.707 669.599 358.044C684 394 677.55 403.282 658.681 418.669Z" fill="#F92665"/>
<g id="Group" opacity="0.1">
<path id="Vector_3" opacity="0.1" d="M339.212 329.158C339.237 329.721 339.279 330.272 339.34 330.811C344.091 328.954 348.755 326.957 353.33 324.82C355.772 324.502 358.042 323.412 359.797 321.716C361.134 321.057 362.466 320.368 363.785 319.679C363.486 319.059 363.148 318.458 362.771 317.881C360.2 313.897 356.292 311.404 351.987 311.542C347.682 311.68 343.957 314.418 341.655 318.546C339.889 321.805 339.045 325.47 339.212 329.158Z" fill="#3F3D56"/>
<path id="Vector_4" opacity="0.1" d="M338.51 308.204C338.602 311.876 339.687 315.458 341.655 318.582C344.232 322.555 348.14 325.047 352.445 324.909C352.744 324.909 353.056 324.867 353.33 324.844C355.772 324.526 358.042 323.436 359.797 321.74C360.988 320.628 361.992 319.338 362.771 317.917C364.494 314.655 365.334 311.014 365.213 307.342C365.091 303.67 364.01 300.091 362.075 296.946C359.498 292.961 355.59 290.469 351.285 290.607C346.98 290.744 343.261 293.483 340.959 297.611C339.194 300.864 338.348 304.522 338.51 308.204Z" fill="#3F3D56"/>
<path id="Vector_5" opacity="0.1" d="M351.74 303.958C359.112 303.72 364.831 295.852 364.514 286.383C364.198 276.913 357.965 269.43 350.593 269.667C343.222 269.905 337.503 277.773 337.819 287.242C338.136 296.711 344.369 304.195 351.74 303.958Z" fill="#3F3D56"/>
<path id="Vector_6" opacity="0.1" d="M351.04 283.008C358.412 282.771 364.131 274.902 363.814 265.433C363.498 255.964 357.265 248.481 349.893 248.718C342.522 248.955 336.802 256.824 337.119 266.293C337.436 275.762 343.669 283.246 351.04 283.008Z" fill="#3F3D56"/>
<path id="Vector_7" opacity="0.1" d="M350.34 262.053C357.712 261.815 363.431 253.947 363.114 244.478C362.797 235.009 356.565 227.525 349.193 227.762C341.821 228 336.102 235.869 336.419 245.338C336.736 254.807 342.968 262.29 350.34 262.053Z" fill="#3F3D56"/>
<path id="Vector_8" opacity="0.1" d="M394.958 99.9154C396.705 97.5795 398.284 95.1269 399.684 92.5755L364.426 88.0577L402.359 87.111C405.738 79.2283 407.441 70.7519 407.366 62.2007C407.29 53.6495 405.437 45.2034 401.919 37.3794L351.901 64.9115L397.7 29.5601C393.037 22.2817 386.9 16.0207 379.67 11.1655C372.439 6.31031 364.27 2.96435 355.667 1.33513C347.064 -0.294083 338.212 -0.171819 329.66 1.69434C321.107 3.56051 313.037 7.13078 305.948 12.1838C298.86 17.2367 292.905 23.6647 288.453 31.069C284.001 38.4733 281.147 46.6961 280.068 55.2275C278.988 63.7589 279.706 72.4169 282.177 80.6648C284.649 88.9126 288.82 96.5744 294.434 103.175C291.712 106.812 289.397 110.725 287.527 114.847L333.82 136.585L284.749 122.169C281.672 132.164 281.184 142.753 283.328 152.98C285.472 163.206 290.181 172.747 297.029 180.738C289.925 190.231 285.686 201.494 284.798 213.239C283.91 224.984 286.408 236.738 292.007 247.156C297.605 257.573 306.078 266.235 316.457 272.151C326.836 278.066 338.702 280.996 350.699 280.607C362.695 280.217 374.337 276.522 384.295 269.946C394.252 263.37 402.123 254.177 407.006 243.419C411.89 232.66 413.59 220.77 411.912 209.109C410.234 197.447 405.245 186.484 397.516 177.473C406.011 166.135 410.377 152.325 409.913 138.26C409.449 124.195 404.182 110.691 394.958 99.9154Z" fill="#F92665"/>
<path id="Vector_9" opacity="0.1" d="M282.05 142.382C282.496 156.456 287.774 169.969 297.029 180.73C289.923 190.221 285.682 201.483 284.792 213.229C283.901 224.974 286.397 236.727 291.994 247.146C297.59 257.565 306.062 266.229 316.44 272.146C326.818 278.063 338.683 280.996 350.68 280.608C362.676 280.22 374.319 276.528 384.278 269.953C394.237 263.379 402.109 254.187 406.995 243.43C411.881 232.672 413.583 220.783 411.907 209.12C410.23 197.458 405.244 186.494 397.517 177.482C405.73 166.541 281.818 135.342 282.05 142.382Z" fill="black"/>
</g>
<g id="Group_2" opacity="0.1">
<path id="Vector_10" opacity="0.1" d="M199.18 439.532C199.18 439.927 199.137 440.323 199.088 440.73C195.709 439.412 192.389 438 189.128 436.494C187.391 436.271 185.775 435.499 184.524 434.295C183.572 433.82 182.625 433.336 181.685 432.845C181.897 432.407 182.138 431.983 182.405 431.575C184.237 428.735 187.01 426.961 190.075 427.057C193.14 427.153 195.791 429.094 197.403 432.03C198.665 434.331 199.278 436.921 199.18 439.532Z" fill="#3F3D56"/>
<path id="Vector_11" opacity="0.1" d="M199.656 424.618C199.596 427.231 198.829 429.781 197.433 432.006C195.601 434.834 192.823 436.614 189.763 436.518L189.153 436.47C187.415 436.247 185.799 435.475 184.549 434.271C183.699 433.481 182.984 432.563 182.43 431.551C181.205 429.232 180.606 426.644 180.689 424.033C180.772 421.423 181.536 418.877 182.906 416.637C184.738 413.797 187.516 412.024 190.576 412.12C193.635 412.215 196.291 414.157 197.934 417.093C199.181 419.406 199.776 422.004 199.656 424.618Z" fill="#3F3D56"/>
<path id="Vector_12" opacity="0.1" d="M200.149 409.732C200.366 402.995 196.29 397.402 191.045 397.239C185.8 397.076 181.373 402.406 181.156 409.143C180.939 415.881 185.015 421.474 190.26 421.637C195.504 421.8 199.932 416.47 200.149 409.732Z" fill="#3F3D56"/>
<path id="Vector_13" opacity="0.1" d="M200.624 394.821C200.841 388.084 196.765 382.491 191.52 382.328C186.275 382.165 181.847 387.495 181.63 394.233C181.413 400.97 185.489 406.563 190.734 406.726C195.979 406.889 200.407 401.559 200.624 394.821Z" fill="#3F3D56"/>
<path id="Vector_14" opacity="0.1" d="M201.104 379.905C201.321 373.167 197.246 367.574 192.001 367.411C186.756 367.248 182.328 372.578 182.111 379.316C181.894 386.053 185.97 391.646 191.215 391.809C196.46 391.972 200.887 386.642 201.104 379.905Z" fill="#3F3D56"/>
<path id="Vector_15" opacity="0.1" d="M159.323 276.448C158.078 274.786 156.95 273.042 155.946 271.229L181.031 267.958L154.035 267.358C151.622 261.751 150.401 255.719 150.448 249.632C150.494 243.545 151.806 237.531 154.303 231.959L189.922 251.51L157.302 226.375C160.603 221.171 164.96 216.69 170.103 213.21C175.245 209.731 181.062 207.327 187.192 206.148C193.323 204.97 199.634 205.042 205.735 206.361C211.835 207.679 217.594 210.215 222.652 213.812C227.71 217.409 231.96 221.988 235.136 227.266C238.313 232.544 240.348 238.406 241.116 244.489C241.884 250.572 241.367 256.745 239.598 262.624C237.83 268.502 234.847 273.96 230.835 278.659C232.778 281.245 234.43 284.029 235.763 286.964L202.837 302.47L237.748 292.164C239.945 299.276 240.302 306.813 238.786 314.094C237.27 321.375 233.929 328.171 229.064 333.867C234.131 340.615 237.159 348.626 237.804 356.984C238.449 365.341 236.684 373.708 232.711 381.128C228.738 388.548 222.718 394.721 215.338 398.942C207.958 403.163 199.517 405.261 190.979 404.996C182.442 404.731 174.152 402.115 167.059 397.445C159.965 392.776 154.354 386.242 150.866 378.591C147.379 370.94 146.155 362.48 147.337 354.179C148.518 345.878 152.056 338.071 157.546 331.65C151.492 323.587 148.376 313.761 148.698 303.75C149.021 293.74 152.763 284.127 159.323 276.454V276.448Z" fill="#F92665"/>
<path id="Vector_16" opacity="0.1" d="M239.684 306.563C239.377 316.578 235.636 326.198 229.064 333.867C234.131 340.615 237.159 348.626 237.804 356.984C238.449 365.342 236.684 373.709 232.711 381.128C228.739 388.548 222.718 394.721 215.338 398.942C207.958 403.163 199.517 405.261 190.979 404.996C182.442 404.732 174.152 402.115 167.059 397.446C159.965 392.776 154.354 386.242 150.866 378.591C147.379 370.94 146.155 362.481 147.337 354.18C148.518 345.879 152.056 338.071 157.546 331.65C151.69 323.861 239.855 301.548 239.684 306.563Z" fill="black"/>
</g>
<g id="Group_3" opacity="0.1">
<path id="Vector_17" opacity="0.1" d="M517.184 361.609C517.184 362.01 517.141 362.4 517.098 362.807C513.715 361.489 510.396 360.077 507.139 358.571C505.4 358.347 503.782 357.576 502.529 356.372C501.582 355.899 500.63 355.413 499.689 354.922C499.904 354.485 500.144 354.061 500.41 353.652C502.242 350.812 505.014 349.038 508.079 349.134C511.145 349.23 513.795 351.171 515.407 354.107C516.669 356.408 517.282 358.998 517.184 361.609Z" fill="#3F3D56"/>
<path id="Vector_18" opacity="0.1" d="M517.697 346.696C517.635 349.308 516.866 351.858 515.468 354.083C513.636 356.911 510.864 358.691 507.799 358.595L507.188 358.547C505.449 358.323 503.831 357.552 502.578 356.348C501.731 355.556 501.016 354.638 500.459 353.628C499.234 351.309 498.635 348.721 498.718 346.11C498.801 343.5 499.565 340.954 500.935 338.715C502.767 335.88 505.545 334.101 508.605 334.197C511.664 334.293 514.327 336.234 515.963 339.17C517.215 341.482 517.813 344.08 517.697 346.696Z" fill="#3F3D56"/>
<path id="Vector_19" opacity="0.1" d="M518.174 331.805C518.391 325.067 514.315 319.474 509.07 319.311C503.825 319.149 499.398 324.478 499.181 331.216C498.964 337.953 503.04 343.547 508.285 343.709C513.53 343.872 517.957 338.542 518.174 331.805Z" fill="#3F3D56"/>
<path id="Vector_20" opacity="0.1" d="M518.655 316.894C518.872 310.156 514.796 304.563 509.551 304.4C504.306 304.238 499.878 309.567 499.661 316.305C499.444 323.042 503.52 328.636 508.765 328.799C514.01 328.961 518.438 323.631 518.655 316.894Z" fill="#3F3D56"/>
<path id="Vector_21" opacity="0.1" d="M519.136 301.983C519.353 295.246 515.277 289.652 510.032 289.49C504.787 289.327 500.359 294.657 500.142 301.394C499.925 308.132 504.001 313.725 509.246 313.888C514.491 314.05 518.919 308.721 519.136 301.983Z" fill="#3F3D56"/>
<path id="Vector_22" opacity="0.1" d="M477.328 198.525C476.081 196.865 474.955 195.121 473.957 193.306L499.042 190.065L472.045 189.424C469.634 183.816 468.413 177.784 468.458 171.697C468.504 165.611 469.813 159.597 472.308 154.024L507.927 173.575L475.306 148.452C478.602 143.236 482.957 138.742 488.101 135.25C493.245 131.759 499.067 129.345 505.204 128.159C511.341 126.974 517.661 127.042 523.77 128.359C529.879 129.676 535.646 132.215 540.711 135.816C545.775 139.417 550.029 144.004 553.208 149.29C556.386 154.576 558.42 160.448 559.182 166.539C559.945 172.631 559.42 178.811 557.641 184.695C555.862 190.578 552.866 196.039 548.84 200.736C550.781 203.322 552.431 206.107 553.762 209.041L520.836 224.547L555.746 214.242C557.947 221.352 558.305 228.889 556.789 236.17C555.273 243.45 551.93 250.245 547.063 255.938C552.13 262.685 555.159 270.695 555.805 279.052C556.451 287.409 554.687 295.776 550.715 303.196C546.743 310.615 540.723 316.788 533.344 321.009C525.965 325.23 517.524 327.328 508.987 327.063C500.45 326.798 492.161 324.182 485.068 319.512C477.975 314.843 472.364 308.309 468.878 300.658C465.391 293.007 464.169 284.548 465.351 276.248C466.533 267.947 470.072 260.141 475.563 253.721C469.509 245.658 466.393 235.832 466.715 225.821C467.037 215.811 470.779 206.198 477.34 198.525H477.328Z" fill="#F92665"/>
<path id="Vector_23" opacity="0.1" d="M557.694 228.64C557.389 238.654 553.644 248.273 547.069 255.938C552.135 262.686 555.164 270.695 555.809 279.052C556.454 287.409 554.689 295.775 550.717 303.194C546.745 310.613 540.725 316.785 533.346 321.006C525.967 325.226 517.527 327.324 508.99 327.059C500.453 326.795 492.165 324.178 485.072 319.509C477.979 314.84 472.369 308.307 468.882 300.657C465.395 293.006 464.172 284.548 465.354 276.248C466.535 267.948 470.073 260.141 475.563 253.721C469.701 245.938 557.853 223.619 557.694 228.64Z" fill="black"/>
</g>
<path id="Vector_24" d="M118.159 456.483C137.386 456.483 152.972 453.543 152.972 449.916C152.972 446.289 137.386 443.349 118.159 443.349C98.9329 443.349 83.3466 446.289 83.3466 449.916C83.3466 453.543 98.9329 456.483 118.159 456.483Z" fill="#F92665"/>
<path id="Vector_25" d="M117.579 452.33C119.819 452.33 121.634 449.999 121.634 447.123C121.634 444.248 119.819 441.917 117.579 441.917C115.34 441.917 113.525 444.248 113.525 447.123C113.525 449.999 115.34 452.33 117.579 452.33Z" fill="#3F3D56"/>
<path id="Vector_26" d="M117.579 445.967C119.819 445.967 121.634 443.636 121.634 440.76C121.634 437.885 119.819 435.553 117.579 435.553C115.34 435.553 113.525 437.885 113.525 440.76C113.525 443.636 115.34 445.967 117.579 445.967Z" fill="#3F3D56"/>
<path id="Vector_27" d="M117.579 439.604C119.819 439.604 121.634 437.273 121.634 434.397C121.634 431.521 119.819 429.19 117.579 429.19C115.34 429.19 113.525 431.521 113.525 434.397C113.525 437.273 115.34 439.604 117.579 439.604Z" fill="#3F3D56"/>
<path id="Vector_28" d="M117.579 433.241C119.819 433.241 121.634 430.909 121.634 428.034C121.634 425.158 119.819 422.827 117.579 422.827C115.34 422.827 113.525 425.158 113.525 428.034C113.525 430.909 115.34 433.241 117.579 433.241Z" fill="#3F3D56"/>
<path id="Vector_29" d="M117.579 426.877C119.819 426.877 121.634 424.546 121.634 421.67C121.634 418.795 119.819 416.464 117.579 416.464C115.34 416.464 113.525 418.795 113.525 421.67C113.525 424.546 115.34 426.877 117.579 426.877Z" fill="#3F3D56"/>
<path id="Vector_30" d="M117.579 420.514C119.819 420.514 121.634 418.183 121.634 415.307C121.634 412.432 119.819 410.1 117.579 410.1C115.34 410.1 113.525 412.432 113.525 415.307C113.525 418.183 115.34 420.514 117.579 420.514Z" fill="#3F3D56"/>
<path id="Vector_31" d="M117.579 414.151C119.819 414.151 121.634 411.82 121.634 408.944C121.634 406.068 119.819 403.737 117.579 403.737C115.34 403.737 113.525 406.068 113.525 408.944C113.525 411.82 115.34 414.151 117.579 414.151Z" fill="#3F3D56"/>
<path id="Vector_32" d="M132.754 365.396C133.307 364.703 133.81 363.975 134.262 363.215L123.613 361.495L135.129 361.585C136.234 359.225 136.836 356.669 136.9 354.073C136.965 351.477 136.489 348.895 135.502 346.486L120.046 354.353L134.299 344.053C132.962 341.791 131.166 339.822 129.021 338.271C126.876 336.719 124.428 335.617 121.83 335.034C119.232 334.45 116.54 334.398 113.921 334.88C111.301 335.362 108.811 336.367 106.605 337.834C104.399 339.301 102.524 341.198 101.097 343.406C99.6702 345.615 98.722 348.088 98.3114 350.672C97.9008 353.256 98.0367 355.895 98.7104 358.425C99.3842 360.955 100.582 363.322 102.228 365.378C101.367 366.456 100.626 367.621 100.017 368.853L113.842 375.899L99.1013 371.046C98.0658 374.048 97.8094 377.256 98.3553 380.38C98.9012 383.504 100.232 386.445 102.228 388.937C99.9759 391.748 98.5754 395.124 98.1864 398.679C97.7974 402.234 98.4356 405.824 100.028 409.04C101.62 412.256 104.103 414.967 107.191 416.864C110.28 418.761 113.85 419.767 117.494 419.767C121.138 419.767 124.708 418.761 127.796 416.864C130.885 414.967 133.367 412.256 134.96 409.04C136.552 405.824 137.19 402.234 136.801 398.679C136.412 395.124 135.012 391.748 132.76 388.937C135.45 385.578 136.912 381.43 136.912 377.158C136.912 372.885 135.45 368.737 132.76 365.378L132.754 365.396Z" fill="#F92665"/>
<path id="Vector_33" opacity="0.1" d="M98.0754 377.176C98.0683 381.449 99.5313 385.6 102.228 388.955C99.9759 391.766 98.5754 395.142 98.1864 398.697C97.7974 402.252 98.4355 405.842 100.028 409.058C101.62 412.274 104.103 414.985 107.191 416.882C110.28 418.779 113.85 419.785 117.494 419.785C121.138 419.785 124.708 418.779 127.796 416.882C130.885 414.985 133.367 412.274 134.96 409.058C136.552 405.842 137.19 402.252 136.801 398.697C136.412 395.142 135.012 391.766 132.76 388.955C135.355 385.714 98.0754 375.037 98.0754 377.176Z" fill="black"/>
<path id="Vector_34" d="M211.588 309.9V445.314C201.508 444.831 191.435 444.25 181.367 443.57L176.781 443.253V309.9C176.781 309.206 176.921 308.519 177.191 307.878C177.462 307.237 177.859 306.654 178.359 306.163C178.859 305.673 179.453 305.283 180.106 305.018C180.759 304.752 181.46 304.615 182.167 304.615H206.202C206.909 304.615 207.61 304.752 208.263 305.018C208.916 305.283 209.51 305.673 210.01 306.163C210.51 306.654 210.907 307.237 211.178 307.878C211.449 308.519 211.588 309.206 211.588 309.9Z" fill="#3F3D56"/>
<path id="Vector_35" d="M256.165 446.998V219.424C256.165 218.023 256.732 216.679 257.742 215.688C258.752 214.696 260.122 214.14 261.551 214.14H285.586C286.293 214.14 286.993 214.276 287.647 214.542C288.3 214.808 288.894 215.197 289.394 215.688C289.894 216.178 290.291 216.761 290.562 217.402C290.832 218.043 290.972 218.73 290.972 219.424V447.591L256.165 446.998Z" fill="#3F3D56"/>
<path id="Vector_36" d="M335.548 447.711V266.759C335.548 265.358 336.116 264.014 337.126 263.022C338.136 262.031 339.506 261.475 340.934 261.475H364.969C366.398 261.475 367.768 262.031 368.778 263.022C369.788 264.014 370.355 265.358 370.355 266.759V447.321L335.548 447.711Z" fill="#3F3D56"/>
<path id="Vector_37" d="M449.739 132.544V445.524C438.137 445.847 426.534 446.151 414.932 446.434V132.544C414.932 131.142 415.499 129.798 416.509 128.807C417.52 127.816 418.889 127.259 420.318 127.259H444.353C445.781 127.259 447.151 127.816 448.161 128.807C449.171 129.798 449.739 131.142 449.739 132.544Z" fill="#3F3D56"/>
<path id="Vector_38" d="M529.122 195.457V442.917C517.52 443.468 505.918 443.858 494.316 444.205V195.457C494.316 194.056 494.883 192.712 495.893 191.72C496.903 190.729 498.273 190.173 499.702 190.173H523.737C525.165 190.173 526.535 190.729 527.545 191.72C528.555 192.712 529.122 194.056 529.122 195.457Z" fill="#3F3D56"/>
<path id="Vector_39" d="M194.49 230.929L273.873 144.048L353.257 187.788L432.641 53.5723L512.024 117.684" stroke="#3F3D56" stroke-width="7" stroke-miterlimit="10" stroke-linecap="round"/>
<path id="Vector_40" d="M194.185 247.706C203.627 247.706 211.282 240.194 211.282 230.929C211.282 221.663 203.627 214.152 194.185 214.152C184.742 214.152 177.087 221.663 177.087 230.929C177.087 240.194 184.742 247.706 194.185 247.706Z" fill="#F92665"/>
<path id="animate__ballon" d="M273.568 160.825C283.011 160.825 290.666 153.314 290.666 144.048C290.666 134.782 283.011 127.271 273.568 127.271C264.125 127.271 256.47 134.782 256.47 144.048C256.47 153.314 264.125 160.825 273.568 160.825Z" fill="#F92665"/>
<path id="Vector_41" d="M352.952 204.565C362.395 204.565 370.05 197.054 370.05 187.788C370.05 178.522 362.395 171.011 352.952 171.011C343.509 171.011 335.854 178.522 335.854 187.788C335.854 197.054 343.509 204.565 352.952 204.565Z" fill="#F92665"/>
<path id="animate__ballon_2" d="M432.335 70.3493C441.778 70.3493 449.433 62.8381 449.433 53.5724C449.433 44.3068 441.778 36.7955 432.335 36.7955C422.892 36.7955 415.237 44.3068 415.237 53.5724C415.237 62.8381 422.892 70.3493 432.335 70.3493Z" fill="#F92665"/>
<path id="animate__ballon_3" d="M584.996 212.953C594.439 212.953 602.094 205.442 602.094 196.176C602.094 186.911 594.439 179.399 584.996 179.399C575.553 179.399 567.898 186.911 567.898 196.176C567.898 205.442 575.553 212.953 584.996 212.953Z" fill="#F92665"/>
<path id="Vector_42" opacity="0.1" d="M142.695 434.864C148.995 434.864 154.102 434.017 154.102 432.971C154.102 431.925 148.995 431.078 142.695 431.078C136.395 431.078 131.288 431.925 131.288 432.971C131.288 434.017 136.395 434.864 142.695 434.864Z" fill="#F92665"/>
<path id="Vector_43" d="M135.038 424.181C135.038 424.181 141.541 423.983 143.501 422.611C145.461 421.239 153.51 419.615 153.998 421.802C154.487 423.989 163.768 432.731 156.441 432.791C149.113 432.851 139.373 431.665 137.419 430.496C135.465 429.328 135.038 424.181 135.038 424.181Z" fill="#A8A8A8"/>
<path id="Vector_44" opacity="0.2" d="M156.557 432.024C149.229 432.084 139.495 430.904 137.535 429.735C136.045 428.843 135.453 425.649 135.251 424.175H135.038C135.038 424.175 135.447 429.322 137.407 430.49C139.367 431.659 149.082 432.845 156.428 432.785C158.547 432.785 159.28 432.03 159.237 430.934C158.944 431.599 158.138 432.012 156.557 432.024Z" fill="black"/>
<path id="Vector_45" opacity="0.1" d="M649.602 452.504C661.173 452.504 670.553 450.948 670.553 449.029C670.553 447.109 661.173 445.554 649.602 445.554C638.031 445.554 628.651 447.109 628.651 449.029C628.651 450.948 638.031 452.504 649.602 452.504Z" fill="#F92665"/>
<path id="Vector_46" d="M635.551 432.881C635.551 432.881 647.502 432.522 651.104 430.005C654.707 427.488 669.485 424.487 670.376 428.519C671.268 432.551 688.341 448.592 674.846 448.699C661.351 448.807 643.496 446.638 639.899 444.505C636.302 442.372 635.551 432.881 635.551 432.881Z" fill="#A8A8A8"/>
<path id="Vector_47" opacity="0.2" d="M675.072 447.297C661.577 447.405 643.722 445.236 640.125 443.103C637.389 441.467 636.296 435.595 635.93 432.917H635.533C635.533 432.917 636.29 442.378 639.881 444.523C643.471 446.668 661.339 448.843 674.828 448.717C678.724 448.717 680.067 447.327 679.994 445.314C679.451 446.512 677.967 447.273 675.072 447.297Z" fill="black"/>
<path id="Vector_48" d="M518.803 206.464C518.916 207.514 519.34 208.507 520.024 209.322C520.909 210.305 522.234 210.754 523.425 211.341C526.507 212.889 528.861 215.544 529.996 218.753C532.029 224.577 532.292 230.737 534.881 236.357C537.47 241.977 540.511 247.376 542.746 253.134C544.016 256.399 545.03 259.797 546.892 262.769C547.794 264.23 548.944 265.529 550.293 266.609C550.153 268.719 550.098 270.804 550.11 272.913C550.523 272.905 550.931 273 551.296 273.188C551.661 273.377 551.972 273.653 552.199 273.991C552.65 274.674 552.962 275.438 553.115 276.238C553.951 279.636 552.919 283.255 553.67 286.67C555.734 296.17 555.1 306.044 551.838 315.215C551.002 317.539 549.951 325.233 550.843 327.54C554.165 327.21 557.108 329.211 560.216 330.536C560.468 332.343 560.318 334.183 559.777 335.928C558.659 339.086 558.665 342.519 558.684 345.856L558.836 370.579C558.836 373.712 558.879 376.888 559.679 379.926C560.589 383.347 562.5 386.834 562.439 390.369C562.274 397.979 565.938 405.229 565.645 412.778C565.59 414.228 565.388 415.667 565.248 417.105C564.887 420.935 564.986 424.794 565.541 428.603C566.653 436.188 569.59 443.648 568.857 451.276C568.808 451.791 568.631 452.474 568.136 452.672C568.747 453.349 569.394 454.02 570.054 454.661C569.92 454.879 569.739 455.066 569.523 455.206C568.801 455.576 568.004 455.781 567.19 455.805C566.235 455.83 565.308 456.125 564.521 456.656C563.949 457.195 563.561 457.894 563.41 458.657C563.193 459.412 563.146 460.204 563.272 460.978C563.399 461.752 563.696 462.489 564.143 463.139C564.688 463.813 565.401 464.337 566.213 464.661C569.034 465.859 572.27 464.991 575.214 464.116L586.743 460.689C587.446 460.545 588.095 460.213 588.617 459.73C588.856 459.453 589.015 459.117 589.075 458.759C591.622 459.358 594.418 458.621 597.014 457.861L608.543 454.427C609.247 454.287 609.896 453.954 610.417 453.469C610.625 453.221 610.774 452.932 610.856 452.621C610.937 452.31 610.948 451.986 610.887 451.671C610.973 451.635 611.058 451.611 611.144 451.569C612.023 451.18 612.976 450.419 612.762 449.502C612.61 448.903 611.999 448.555 611.736 448.004C611.613 447.646 611.587 447.262 611.662 446.89C611.737 446.519 611.91 446.174 612.164 445.889C612.616 445.29 613.226 444.792 613.641 444.163C614.973 442.162 614.069 439.532 613.568 437.189C612.487 432.186 613.489 426.961 612.805 421.892C612.573 420.184 612.152 418.507 611.816 416.811C611.104 412.803 610.633 408.758 610.405 404.696C609.965 398.896 608.323 393.179 609.263 387.427C609.72 384.051 609.914 380.646 609.843 377.241C609.91 375.072 609.814 372.901 609.556 370.746C609.318 369.14 608.897 367.565 608.714 365.953C608.565 364.141 608.532 362.322 608.616 360.506C608.7 356.459 608.319 352.415 607.48 348.451C606.259 343.004 603.963 337.792 602.986 332.333C603.316 332.405 603.645 332.477 603.963 332.561C603.999 328.367 600.256 319.247 598.87 315.269C598.667 314.781 598.544 314.266 598.504 313.741C598.587 313.048 598.716 312.362 598.888 311.685C599.065 310.235 598.278 308.857 598.064 307.407C597.981 306.387 598.057 305.361 598.29 304.364C599.273 299.001 600.494 293.68 601.716 288.366C602.248 286.441 602.432 284.439 602.259 282.452C602.117 281.398 602.207 280.328 602.523 279.312C602.839 278.295 603.374 277.358 604.091 276.562C604.628 276.076 605.085 275.512 605.447 274.89C605.65 274.356 605.741 273.788 605.715 273.218C605.691 270.754 605.321 268.304 604.616 265.938C605.691 264.027 606.088 261.678 606.399 259.461C607.083 254.566 607.767 249.647 607.743 244.704C607.797 242.067 607.426 239.438 606.644 236.914C606.072 235.356 605.373 233.845 604.555 232.396C601.343 226.327 598.272 219.94 594.217 214.379C592.996 212.69 593.765 210.359 593.851 208.274C593.942 205.757 592.928 203.342 591.933 201.03C591.425 199.606 590.646 198.291 589.637 197.153C589.296 196.784 588.882 196.488 588.42 196.282C587.958 196.076 587.458 195.965 586.95 195.955C586.375 196.024 585.822 196.213 585.328 196.509C584.834 196.806 584.411 197.203 584.086 197.674C583.348 198.661 582.816 199.782 582.522 200.972C582.227 202.162 582.176 203.397 582.37 204.607C582.776 207.028 583.851 209.293 585.479 211.156C586.265 212.093 587.165 212.932 588.159 213.654C589.169 216.802 590.187 219.948 591.213 223.091C592.825 228.094 594.437 233.122 596.708 237.855C597.374 239.227 598.107 240.623 598.186 242.139C598.272 243.775 597.575 245.333 597.02 246.873C595.849 250.082 595.186 253.448 595.054 256.855C594.875 256.933 594.703 257.025 594.541 257.13C592.617 258.365 592.013 261.055 590.01 262.158C588.843 262.799 587.427 262.757 586.12 263.05C586.004 263.05 585.888 263.11 585.766 263.146C585.717 262.907 585.668 262.673 585.637 262.427C585.619 262.274 585.619 262.119 585.637 261.966C588.751 260.286 591.367 257.842 593.228 254.872C593.62 254.322 593.923 253.715 594.125 253.074C594.29 252.306 594.321 251.516 594.217 250.737C594.115 248.139 593.736 245.559 593.087 243.038C592.436 240.505 591.01 238.228 589.002 236.513C588.001 235.722 586.846 235.129 585.851 234.332C583.909 232.792 582.578 230.515 580.355 229.371C578.941 228.695 577.327 228.536 575.804 228.922C574.281 229.309 572.948 230.216 572.044 231.48C571.749 232.064 571.333 232.583 570.823 233.002C570.434 233.182 570.055 233.382 569.687 233.601C569.016 234.128 568.979 235.141 569.199 235.962C569.616 237.648 569.849 239.374 569.895 241.109C567.924 243.378 566.839 246.26 566.832 249.242C566.825 252.223 567.898 255.11 569.858 257.388C569.858 258.503 569.858 259.617 569.816 260.732C569.816 260.941 569.816 261.157 569.773 261.367C569.069 261.126 568.438 260.714 567.941 260.168C567.257 259.329 567.135 258.095 566.298 257.406C565.697 257.017 565.011 256.771 564.295 256.687C562.517 256.291 560.849 255.515 559.41 254.416C558.281 253.559 557.108 252.463 555.789 252.211C553.513 248.022 550.856 244.044 547.851 240.324C547.089 239.443 546.395 238.508 545.775 237.525C544.462 235.279 544.071 232.636 543.24 230.174C540.92 223.271 535.131 217.735 533.721 210.592C533.208 208.004 531.534 205.751 530.386 203.366C529.611 201.755 528.756 200.053 527.205 199.13C525.208 197.932 522.448 198.483 520.787 200.095C519.983 200.938 519.386 201.95 519.042 203.054C518.698 204.158 518.616 205.324 518.803 206.464ZM591.304 448.945C590.583 449.314 589.785 449.519 588.972 449.544C588.561 449.586 588.153 449.65 587.75 449.736C587.598 448.477 587.512 447.201 587.414 445.961C587.091 441.892 586.443 437.854 585.802 433.822C585.131 429.627 584.813 425.038 583.36 421.011C581.021 414.456 578.652 407.703 578.951 400.759C579.018 399.183 579.22 397.619 579.305 396.049C579.5 392.161 578.945 388.188 579.916 384.407C580.349 382.688 581.088 381.046 581.369 379.297C581.548 377.716 581.569 376.123 581.43 374.539C581.163 369.041 581.629 363.532 582.816 358.152C583.952 359.608 584.325 361.489 584.648 363.293L586.938 375.48C588.3 382.712 589.503 390.381 593.112 396.816C592.605 399.135 592.104 401.61 592.941 403.827C593.301 404.785 593.893 405.624 594.26 406.595C594.87 408.207 594.785 409.98 594.968 411.688C595.365 415.283 596.879 418.818 595.768 422.287C594.625 425.865 593.882 429.553 593.551 433.288C593.491 434.327 593.368 435.361 593.185 436.386C592.99 437.309 592.672 438.184 592.495 439.13C592.251 440.459 592.311 441.824 592.672 443.127C592.946 443.849 593.115 444.605 593.173 445.374C593.173 446.141 592.214 446.692 591.445 446.812C591.671 447.099 591.915 447.375 592.165 447.645C592.018 448.153 591.718 448.606 591.304 448.945Z" fill="url(#paint0_linear)"/>
<path id="Vector_49" d="M567.19 455.859C566.235 455.884 565.308 456.18 564.521 456.71C563.947 457.242 563.558 457.938 563.41 458.7C563.193 459.448 563.147 460.234 563.273 461.002C563.4 461.77 563.697 462.502 564.143 463.145C564.688 463.817 565.401 464.339 566.213 464.661C569.034 465.86 572.27 464.985 575.214 464.116L586.743 460.713C587.445 460.572 588.094 460.242 588.617 459.76C588.935 459.341 589.11 458.834 589.119 458.312C589.127 457.789 588.969 457.278 588.666 456.848C588.047 456.002 587.201 455.341 586.223 454.937C582.639 453.223 578.597 452.834 574.658 452.762C573.192 452.762 571.745 452.414 570.75 453.523C570.225 454.122 570.322 454.763 569.529 455.272C568.803 455.636 568.004 455.836 567.19 455.859Z" fill="#3F3D56"/>
<path id="Vector_50" d="M588.972 449.64C588.017 449.667 587.091 449.963 586.303 450.491C585.73 451.024 585.342 451.719 585.192 452.48C584.975 453.23 584.929 454.017 585.056 454.786C585.182 455.555 585.479 456.287 585.924 456.932C586.472 457.6 587.185 458.12 587.995 458.442C590.822 459.64 594.052 458.771 596.995 457.903L608.524 454.493C609.227 454.352 609.876 454.022 610.399 453.541C610.716 453.122 610.891 452.617 610.9 452.095C610.908 451.574 610.75 451.063 610.448 450.635C609.828 449.79 608.983 449.128 608.005 448.723C604.415 447.01 600.372 446.614 596.434 446.542C594.968 446.542 593.527 446.201 592.525 447.309C592 447.908 592.098 448.543 591.304 449.053C590.583 449.421 589.785 449.622 588.972 449.64Z" fill="#3F3D56"/>
<path id="Vector_51" d="M578.951 326.869C585.745 326.199 592.58 326.011 599.401 326.306C599.852 326.301 600.299 326.37 600.726 326.509C602.229 327.108 602.461 329.038 602.601 330.614C603.212 337.013 606.057 342.975 607.486 349.242C608.325 353.182 608.706 357.202 608.622 361.226C608.54 363.023 608.572 364.824 608.72 366.618C608.903 368.218 609.33 369.788 609.562 371.382C609.82 373.523 609.916 375.68 609.849 377.835C609.919 381.214 609.725 384.593 609.269 387.943C608.329 393.653 609.972 399.327 610.411 405.103C610.63 409.143 611.093 413.167 611.797 417.153C612.133 418.836 612.555 420.502 612.787 422.198C613.471 427.237 612.469 432.426 613.55 437.399C614.051 439.724 614.954 442.336 613.623 444.325C613.208 444.925 612.597 445.434 612.145 446.039C611.892 446.322 611.719 446.665 611.644 447.034C611.569 447.403 611.594 447.786 611.718 448.142C611.981 448.687 612.591 449.047 612.744 449.628C612.982 450.545 612.005 451.294 611.126 451.683C604.5 454.619 595.957 452.552 591.488 446.926C592.257 446.806 593.197 446.261 593.216 445.494C593.157 444.731 592.988 443.981 592.715 443.265C592.355 441.972 592.295 440.617 592.538 439.298C592.715 438.376 593.032 437.501 593.228 436.572C593.411 435.553 593.533 434.525 593.594 433.492C593.925 429.781 594.668 426.116 595.811 422.563C596.922 419.118 595.408 415.631 595.011 412.036C594.828 410.334 594.907 408.578 594.303 406.973C593.936 406.026 593.344 405.175 592.984 404.228C592.147 402.017 592.648 399.561 593.155 397.26C589.546 390.867 588.343 383.245 586.981 376.061L584.691 363.958C584.349 362.16 583.977 360.297 582.859 358.847C581.672 364.19 581.206 369.664 581.473 375.126C581.612 376.7 581.591 378.284 581.412 379.854C581.131 381.592 580.392 383.227 579.959 384.929C579.012 388.686 579.568 392.628 579.348 396.493C579.263 398.057 579.061 399.609 578.994 401.173C578.695 408.075 581.064 414.786 583.403 421.299C584.838 425.295 585.155 429.837 585.845 434.02C586.456 438.028 587.134 442.037 587.457 446.081C587.757 449.796 587.891 453.816 590.248 456.734C588.092 458.106 585.87 459.502 583.348 459.976C580.409 460.427 577.402 459.855 574.848 458.358C572.308 456.868 570.038 454.975 568.131 452.756C568.625 452.588 568.802 451.881 568.851 451.372C569.584 443.786 566.647 436.392 565.535 428.843C564.98 425.06 564.881 421.227 565.242 417.422C565.383 415.99 565.584 414.558 565.639 413.12C565.932 405.625 562.25 398.404 562.384 390.903C562.446 387.386 560.553 383.922 559.624 380.525C558.824 377.529 558.8 374.354 558.782 371.238L558.629 346.672C558.629 343.352 558.629 339.949 559.722 336.815C561.065 333.04 559.527 328.708 559.295 324.718C565.64 326.691 572.319 327.422 578.951 326.869Z" fill="#696791"/>
<path id="Vector_52" d="M557.181 256.286C554.615 251.137 551.48 246.281 547.832 241.804C547.07 240.929 546.376 240 545.756 239.024C544.443 236.789 544.053 234.164 543.222 231.72C540.902 224.865 535.113 219.359 533.702 212.27C533.189 209.694 531.516 207.477 530.368 205.08C529.593 203.48 528.738 201.791 527.187 200.886C525.19 199.688 522.43 200.239 520.769 201.845C519.97 202.68 519.377 203.685 519.036 204.781C518.695 205.877 518.615 207.035 518.803 208.166C518.917 209.21 519.342 210.197 520.024 211.006C520.909 211.983 522.234 212.426 523.425 213.013C526.502 214.544 528.856 217.182 529.996 220.377C532.029 226.159 532.292 232.283 534.881 237.867C537.47 243.451 540.511 248.808 542.746 254.518C544.016 257.76 545.03 261.109 546.892 264.105C548.755 267.101 551.661 269.612 555.172 270.061C555.149 267.889 555.485 265.728 556.168 263.662C556.931 261.301 558.287 258.521 557.181 256.286Z" fill="#A0616A"/>
<path id="Vector_53" d="M594.986 260.768C594.829 256.531 595.503 252.304 596.971 248.317C597.533 246.789 598.192 245.237 598.137 243.613C598.058 242.103 597.325 240.719 596.66 239.353C594.364 234.65 592.751 229.664 591.164 224.691L588.111 215.314C587.115 214.598 586.215 213.763 585.43 212.828C583.802 210.981 582.727 208.729 582.322 206.32C582.127 205.12 582.178 203.893 582.473 202.711C582.768 201.53 583.3 200.419 584.038 199.442C584.363 198.973 584.787 198.577 585.281 198.281C585.775 197.986 586.327 197.797 586.902 197.728C587.409 197.739 587.908 197.851 588.37 198.057C588.832 198.263 589.246 198.559 589.588 198.927C590.596 200.054 591.375 201.36 591.884 202.773C592.88 205.074 593.893 207.471 593.802 209.963C593.716 212.037 592.929 214.349 594.168 216.033C598.223 221.558 601.294 227.903 604.506 233.937C605.326 235.374 606.024 236.875 606.595 238.424C607.379 240.935 607.75 243.552 607.694 246.178C607.694 251.085 607.034 255.974 606.35 260.84C605.917 263.889 605.349 267.209 602.998 269.228C600.555 266.16 598.101 263.164 594.986 260.768Z" fill="#A0616A"/>
<path id="Vector_54" d="M579.452 263.104C586.45 263.104 592.123 257.538 592.123 250.671C592.123 243.805 586.45 238.239 579.452 238.239C572.454 238.239 566.781 243.805 566.781 250.671C566.781 257.538 572.454 263.104 579.452 263.104Z" fill="#A0616A"/>
<path id="Vector_55" d="M585.588 263.763C585.894 266.01 587.121 268.024 588.318 269.965C589.039 271.163 589.961 272.44 591.371 272.571C587.7 274.462 583.844 275.983 579.861 277.113C578.507 277.559 577.087 277.784 575.659 277.778C574.449 277.69 573.265 277.391 572.16 276.897C569.745 275.865 567.601 274.309 565.888 272.345C564.176 270.381 562.94 268.062 562.274 265.561C563.852 265.602 565.429 265.484 566.982 265.207C567.869 265.141 568.695 264.742 569.29 264.093C569.644 263.486 569.81 262.79 569.767 262.092C569.828 260.019 569.834 257.939 569.767 255.866C572.88 255.672 576.003 256.05 578.975 256.981C580.196 257.37 581.418 257.838 582.639 258.143C583.408 258.335 585.527 258.143 586.095 258.581C587.029 259.198 585.375 262.236 585.588 263.763Z" fill="#A0616A"/>
<path id="Vector_56" d="M580.019 271.319C580.158 269.681 580.819 268.127 581.909 266.879C582.998 265.63 584.461 264.75 586.089 264.363C587.396 264.075 588.813 264.111 589.979 263.476C591.982 262.379 592.586 259.707 594.51 258.479C596.433 257.25 599.163 257.933 600.836 259.485C602.509 261.037 603.358 263.248 604.042 265.411C605.063 268.336 605.617 271.398 605.685 274.489C605.71 275.054 605.619 275.619 605.416 276.148C605.054 276.767 604.597 277.327 604.06 277.808C603.344 278.597 602.809 279.529 602.493 280.539C602.177 281.549 602.087 282.614 602.228 283.662C602.402 285.636 602.218 287.624 601.685 289.534C600.464 294.819 599.242 300.097 598.259 305.43C598.029 306.412 597.952 307.422 598.033 308.426C598.223 309.87 599.035 311.236 598.858 312.68C598.685 313.352 598.556 314.035 598.473 314.723C598.513 315.244 598.636 315.756 598.839 316.239C600.225 320.188 603.969 329.235 603.932 333.418C597.429 331.782 587.842 331.416 581.125 331.386C579.277 331.368 577.43 331.448 575.592 331.626C571.177 332.094 566.658 333.358 562.378 332.189C558.403 331.105 554.885 327.995 550.776 328.385C549.884 326.096 550.934 318.456 551.771 316.143C555.032 307.037 555.666 297.223 553.603 287.784C552.852 284.393 553.884 280.792 553.047 277.425C552.894 276.628 552.583 275.869 552.131 275.19C551.904 274.853 551.593 274.577 551.228 274.39C550.862 274.202 550.455 274.109 550.043 274.117C549.967 268.701 550.478 263.292 551.569 257.981C551.972 256.094 552.791 253.865 554.763 253.542C556.51 253.248 557.975 254.698 559.38 255.758C560.82 256.852 562.487 257.621 564.265 258.011C564.98 258.095 565.666 258.341 566.268 258.73C567.104 259.413 567.226 260.642 567.91 261.475C569.132 262.967 571.861 262.841 572.728 264.56C572.918 265.073 573.071 265.597 573.186 266.13C573.596 267.152 574.295 268.038 575.201 268.683C576.561 269.937 578.217 270.843 580.019 271.319Z" fill="#FF3370"/>
<path id="Vector_57" d="M569.156 237.454C568.936 236.633 568.973 235.656 569.645 235.105C569.981 234.847 570.42 234.751 570.781 234.506C571.288 234.087 571.704 233.571 572.002 232.99C572.913 231.739 574.246 230.844 575.766 230.466C577.285 230.088 578.891 230.249 580.3 230.923C582.505 232.055 583.836 234.32 585.796 235.848C586.791 236.639 587.946 237.226 588.947 238.017C590.953 239.717 592.379 241.98 593.032 244.5C593.681 247.003 594.06 249.565 594.162 252.145C594.266 252.92 594.235 253.706 594.07 254.47C593.867 255.111 593.565 255.718 593.173 256.268C591.157 259.264 588.501 261.984 585.173 263.53C581.845 265.076 577.797 265.327 574.512 263.71C574.181 263.579 573.897 263.356 573.693 263.068C573.507 262.631 573.462 262.148 573.565 261.684C573.743 259.853 573.374 258.011 572.503 256.382C571.892 255.183 570.976 254.153 570.487 252.912C570.033 251.524 569.839 250.067 569.913 248.61C569.858 244.842 570.121 241.085 569.156 237.454Z" fill="#2D293D"/>
</g>
<defs>
<linearGradient id="paint0_linear" x1="614.319" y1="330.601" x2="518.723" y2="330.601" gradientUnits="userSpaceOnUse">
<stop stop-color="#808080" stop-opacity="0.25"/>
<stop offset="0.54" stop-color="#808080" stop-opacity="0.12"/>
<stop offset="1" stop-color="#808080" stop-opacity="0.1"/>
</linearGradient>
<clipPath id="clip0">
<rect width="680" height="470" fill="white"/>
</clipPath>
</defs>
</svg>
