<svg width="790" height="600" viewBox="0 0 790 600" fill="none" xmlns="http://www.w3.org/2000/svg">
<g clip-path="url(#clip0)">
<path d="M140.4 409.431C141.011 410.434 141.823 411.313 142.79 412.018C143.758 412.722 144.862 413.238 146.039 413.537C147.216 413.835 148.444 413.909 149.651 413.755C150.859 413.601 152.023 413.222 153.076 412.64C154.129 412.058 155.052 411.283 155.791 410.361C156.53 409.44 157.07 408.388 157.382 407.267C157.693 406.146 157.769 404.978 157.606 403.829C157.442 402.68 157.043 401.573 156.429 400.571C156.17 400.157 155.878 399.763 155.556 399.392L163.353 346.503L163.586 344.919L165.17 334.126L165.403 332.571L164.54 332.609L149.435 333.266L145.385 333.44L144.877 343.286L142.004 398.638C140.503 400.005 139.529 401.813 139.238 403.77C138.947 405.728 139.357 407.721 140.4 409.431V409.431Z" fill="#FFB8B8"/>
<path d="M163.541 345.4L144.361 343.725C143.366 343.635 142.449 343.175 141.809 342.444C141.169 341.714 140.859 340.772 140.946 339.824L144.504 301.861C144.676 300.017 145.235 298.225 146.148 296.59C147.061 294.956 148.31 293.512 149.819 292.345C151.329 291.178 153.069 290.311 154.937 289.795C156.805 289.279 158.762 289.125 160.694 289.342C162.625 289.559 164.491 290.143 166.182 291.058C167.872 291.974 169.352 293.203 170.535 294.673C171.717 296.142 172.578 297.823 173.066 299.615C173.554 301.407 173.66 303.274 173.376 305.105L167.625 342.342C167.493 343.195 167.043 343.974 166.358 344.539C165.673 345.103 164.797 345.414 163.891 345.415C163.775 345.415 163.658 345.41 163.541 345.4Z" fill="#0FB8A1"/>
<path d="M149.005 314.728C147.065 309.498 146.975 303.807 148.749 298.524C150.523 293.241 154.063 288.654 158.83 285.464C166.063 280.754 175.96 279.063 186.619 291.141C207.937 315.295 213.52 341.865 213.52 341.865L169.87 348.628C169.87 348.628 155.024 331.358 149.005 314.728Z" fill="#0FB8A1"/>
<g opacity="0.2">
<path opacity="0.2" d="M176.477 285.344C173.253 293.799 169.961 302.594 169.748 312.033C169.535 319.247 171.284 326.391 174.823 332.772C178.243 338.672 183.239 342.987 188.738 344.791C189.771 345.207 190.908 345.33 192.012 345.142C192.626 344.978 193.183 344.664 193.629 344.23C194.075 343.797 194.394 343.261 194.555 342.674C195.052 341.008 194.454 339.161 193.866 337.546C187.341 319.634 184.177 304.072 177.652 286.16L176.477 285.344Z" fill="black"/>
</g>
<path d="M219.601 586.811L232.047 586.811L237.967 541.122L219.599 541.123L219.601 586.811Z" fill="#FFB8B8"/>
<path d="M256.049 597.809L216.935 597.81L216.935 583.427L240.936 583.426C242.921 583.426 244.886 583.798 246.719 584.52C248.553 585.243 250.219 586.303 251.622 587.638C253.025 588.974 254.139 590.559 254.898 592.304C255.658 594.049 256.049 595.92 256.049 597.809V597.809V597.809Z" fill="#2F2E41"/>
<path d="M117.284 576.48L129.101 580.198L149.789 538.587L132.348 533.101L117.284 576.48Z" fill="#FFB8B8"/>
<path d="M148.262 597.811L111.125 586.127L115.868 572.47L138.657 579.64C142.462 580.837 145.612 583.424 147.413 586.832C149.215 590.239 149.52 594.188 148.262 597.81L148.262 597.811Z" fill="#2F2E41"/>
<path d="M176.404 273.485C190.174 273.485 201.336 262.86 201.336 249.754C201.336 236.648 190.174 226.024 176.404 226.024C162.634 226.024 151.472 236.648 151.472 249.754C151.472 262.86 162.634 273.485 176.404 273.485Z" fill="#FFB8B8"/>
<path d="M198.234 574.092L186.676 501.489C186.553 500.714 186.151 500.004 185.538 499.48C184.926 498.956 184.141 498.651 183.319 498.616C182.496 498.582 181.686 498.821 181.028 499.292C180.37 499.763 179.904 500.437 179.711 501.199L162.111 570.39C161.833 571.45 161.15 572.373 160.194 572.978C159.239 573.583 158.08 573.826 156.946 573.66L108.398 566.233C107.754 566.135 107.14 565.906 106.597 565.563C106.053 565.22 105.594 564.77 105.248 564.244C104.903 563.718 104.68 563.127 104.594 562.512C104.508 561.897 104.562 561.272 104.751 560.678L168.055 362.034C168.234 361.469 168.256 360.869 168.116 360.294L166.009 351.601C165.777 350.658 165.884 349.669 166.312 348.791C166.74 347.913 167.465 347.197 168.37 346.757C176.991 342.57 198.819 333.867 215.301 343.401C215.836 343.711 216.299 344.122 216.661 344.608C217.024 345.094 217.279 345.645 217.411 346.228L266.864 567.451C266.999 568.053 266.997 568.675 266.861 569.276C266.724 569.877 266.455 570.444 266.071 570.939C265.687 571.433 265.198 571.845 264.635 572.147C264.071 572.448 263.447 572.632 262.804 572.687L203.158 577.771C203.021 577.782 202.884 577.788 202.749 577.788C201.657 577.786 200.601 577.412 199.773 576.734C198.945 576.057 198.399 575.119 198.234 574.092V574.092Z" fill="#2F2E41"/>
<path d="M237.699 393.35C238.292 392.199 238.612 390.938 238.638 389.656C238.663 388.374 238.393 387.102 237.847 385.93C237.3 384.758 236.49 383.715 235.474 382.873C234.457 382.031 233.259 381.412 231.964 381.058L200.807 320.454L184.735 331.846L220.298 387.655C219.819 389.765 220.169 391.969 221.283 393.85C222.396 395.731 224.196 397.157 226.341 397.859C228.486 398.561 230.827 398.49 232.92 397.659C235.013 396.828 236.714 395.295 237.699 393.35H237.699Z" fill="#FFB8B8"/>
<path d="M182.781 335.628L163.393 302.286C162.22 300.282 161.59 298.031 161.561 295.737C161.533 293.443 162.105 291.179 163.227 289.149C164.145 287.439 165.443 285.941 167.031 284.757C169.079 283.205 171.529 282.206 174.123 281.868C176.717 281.529 179.358 281.863 181.77 282.833C185.123 284.221 187.827 286.73 189.37 289.885L206.365 323.5C206.785 324.329 206.854 325.28 206.559 326.157C206.264 327.033 205.628 327.769 204.78 328.212L187.908 337.039C187.031 337.496 185.999 337.605 185.038 337.341C184.078 337.076 183.266 336.461 182.781 335.628V335.628Z" fill="#0FB8A1"/>
<path d="M164.025 229.042C166.095 228.354 168.024 227.328 169.724 226.009C170.567 225.34 171.214 224.475 171.604 223.499C171.994 222.522 172.114 221.467 171.952 220.434C171.286 217.6 167.801 216.052 164.769 216.371C161.736 216.69 159.079 218.371 156.555 220.004C154.333 221.442 152.041 222.949 150.655 225.141C149.27 227.333 149.059 230.418 150.901 232.281C152.709 234.109 155.878 234.137 158.245 233.029C160.611 231.922 162.363 229.929 164.041 227.992L164.025 229.042Z" fill="#2F2E41"/>
<path d="M157.209 220.781C158.508 214.209 151.698 207.959 144.675 207.775C137.651 207.591 131.243 212.051 127.31 217.593C119.001 229.303 119.931 244.73 122.411 258.662C124.891 272.593 128.587 286.97 124.786 300.629C122.627 307.992 118.418 314.663 112.605 319.937C106.792 325.211 99.5903 328.894 91.7603 330.594C98.678 335.408 108.556 333.816 116.103 329.952C132.862 321.371 142.819 302.148 139.763 284.27C138.256 275.452 133.977 267.315 131.109 258.809C128.241 250.302 126.878 240.679 131.073 232.687C135.268 224.695 146.734 219.824 154.535 224.792L157.209 220.781Z" fill="#2F2E41"/>
<path d="M175.815 259.268C174.438 255.423 173.275 250.504 177.82 248.285C178.802 247.832 179.869 247.57 180.958 247.515C182.048 247.461 183.138 247.614 184.164 247.965C188.439 249.339 193.168 250.495 197.744 249.821C199.45 249.616 201.095 249.086 202.582 248.264C204.068 247.442 205.366 246.344 206.399 245.035C209.673 240.529 208.245 233.98 204.349 229.947C201.951 227.55 198.862 225.879 195.47 225.146C192.078 224.413 188.534 224.649 185.283 225.825C179.897 222.154 172.456 221.833 166.314 224.196C160.172 226.559 155.279 231.325 151.989 236.798C149.036 241.485 147.525 246.866 147.628 252.33C147.835 256.158 149.009 259.883 151.049 263.188C153.09 266.493 155.937 269.281 159.35 271.317C160.672 272.143 162.199 272.624 163.778 272.712C165.357 272.8 166.933 272.491 168.347 271.817C168.347 271.817 172.323 269.69 174.114 266.533C175.489 264.108 176.551 261.322 175.815 259.268Z" fill="#2F2E41"/>
<path d="M387.775 600H1.01512C0.745892 600 0.487692 599.898 0.29732 599.717C0.106949 599.536 0 599.29 0 599.034C0 598.777 0.106949 598.532 0.29732 598.35C0.487692 598.169 0.745892 598.067 1.01512 598.067H387.775C388.044 598.067 388.303 598.169 388.493 598.35C388.683 598.532 388.79 598.777 388.79 599.034C388.79 599.29 388.683 599.536 388.493 599.717C388.303 599.898 388.044 600 387.775 600Z" fill="#3F3D56"/>
<path d="M502.783 381.155H379.809C376.461 381.152 373.252 379.884 370.884 377.631C368.517 375.378 367.186 372.324 367.182 369.137V180.879C367.186 177.693 368.517 174.638 370.884 172.385C373.252 170.132 376.461 168.865 379.809 168.861H502.783V381.155ZM379.809 170.794C376.999 170.797 374.306 171.86 372.319 173.751C370.333 175.642 369.215 178.205 369.212 180.879V369.137C369.215 371.811 370.333 374.375 372.319 376.266C374.306 378.156 376.999 379.22 379.809 379.223H500.753V170.794H379.809Z" fill="#3F3D56"/>
<path d="M499.603 168.861H622.577C625.925 168.865 629.134 170.132 631.502 172.385C633.869 174.638 635.2 177.693 635.204 180.879V369.137C635.2 372.324 633.869 375.378 631.502 377.631C629.134 379.884 625.925 381.152 622.577 381.155H499.603V168.861Z" fill="#3F3D56"/>
<path d="M411.174 120.108H409.786V181.54H411.174V120.108Z" fill="#2F2E41"/>
<path d="M410.895 121.43C408.013 121.43 405.195 120.616 402.798 119.092C400.402 117.568 398.534 115.401 397.43 112.866C396.327 110.332 396.039 107.543 396.601 104.852C397.163 102.161 398.552 99.6892 400.59 97.7492C402.628 95.8092 405.225 94.4881 408.052 93.9528C410.879 93.4176 413.809 93.6923 416.473 94.7422C419.136 95.7921 421.412 97.5701 423.013 99.8513C424.615 102.132 425.469 104.814 425.469 107.558C425.469 111.237 423.934 114.765 421.201 117.367C418.468 119.968 414.761 121.43 410.895 121.43ZM410.895 95.0074C408.287 95.0074 405.738 95.7435 403.569 97.1225C401.401 98.5016 399.711 100.462 398.713 102.755C397.715 105.048 397.454 107.572 397.962 110.006C398.471 112.441 399.727 114.677 401.571 116.432C403.415 118.188 405.765 119.383 408.323 119.867C410.881 120.352 413.532 120.103 415.941 119.153C418.351 118.203 420.41 116.595 421.859 114.531C423.308 112.467 424.081 110.04 424.081 107.558C424.081 104.229 422.692 101.037 420.219 98.6834C417.746 96.3297 414.392 95.0074 410.895 95.0074V95.0074Z" fill="#2F2E41"/>
<path d="M553.187 37.5391H551.799V179.558H553.187V37.5391Z" fill="#2F2E41"/>
<path d="M552.908 37.5392C550.026 37.5392 547.208 36.7256 544.811 35.2014C542.415 33.6771 540.546 31.5107 539.443 28.976C538.34 26.4413 538.052 23.6522 538.614 20.9613C539.176 18.2705 540.564 15.7988 542.603 13.8588C544.641 11.9188 547.238 10.5977 550.065 10.0624C552.892 9.5272 555.822 9.80191 558.486 10.8518C561.149 11.9017 563.425 13.6797 565.026 15.9609C566.628 18.2421 567.482 20.924 567.482 23.6675C567.482 27.3465 565.947 30.8748 563.214 33.4763C560.481 36.0777 556.774 37.5392 552.908 37.5392V37.5392ZM552.908 11.117C550.3 11.117 547.751 11.8531 545.582 13.2322C543.414 14.6112 541.724 16.5714 540.726 18.8647C539.728 21.158 539.467 23.6815 539.975 26.116C540.484 28.5506 541.74 30.7869 543.584 32.5421C545.428 34.2973 547.778 35.4927 550.336 35.9769C552.894 36.4612 555.545 36.2126 557.954 35.2627C560.364 34.3128 562.423 32.7042 563.872 30.6402C565.321 28.5763 566.094 26.1498 566.094 23.6675C566.094 20.3389 564.705 17.1467 562.232 14.793C559.759 12.4393 556.405 11.117 552.908 11.117V11.117Z" fill="#2F2E41"/>
<path d="M501.26 319.998C489 319.998 477.242 315.363 468.573 307.111C459.903 298.86 455.033 287.668 455.033 275.999C455.033 264.33 459.903 253.138 468.573 244.887C477.242 236.636 489 232 501.26 232V319.998Z" fill="#0FB8A1"/>
<path d="M501.26 232C513.521 232 525.279 236.636 533.948 244.887C542.618 253.138 547.488 264.33 547.488 275.999C547.488 287.668 542.618 298.86 533.948 307.111C525.279 315.363 513.521 319.998 501.26 319.998V232Z" fill="#E6E6E6"/>
<path d="M661.577 405.931H342.332C339.204 405.928 336.205 404.743 333.994 402.638C331.782 400.533 330.538 397.679 330.534 394.702V154.654C330.538 151.677 331.782 148.823 333.994 146.718C336.205 144.612 339.204 143.428 342.332 143.425H661.577C664.705 143.428 667.703 144.612 669.915 146.718C672.127 148.823 673.371 151.677 673.375 154.654V394.702C673.371 397.679 672.127 400.533 669.915 402.638C667.703 404.743 664.705 405.928 661.577 405.931V405.931ZM342.332 144.746C339.572 144.749 336.926 145.794 334.975 147.651C333.023 149.509 331.925 152.027 331.922 154.654V394.702C331.925 397.329 333.023 399.847 334.975 401.705C336.926 403.562 339.572 404.607 342.332 404.61H661.577C664.337 404.607 666.983 403.562 668.934 401.705C670.886 399.847 671.984 397.329 671.987 394.702V154.654C671.984 152.027 670.886 149.509 668.934 147.651C666.983 145.794 664.337 144.749 661.577 144.746H342.332Z" fill="#3F3D56"/>
<path d="M481.217 81.2935H479.829V250.139H481.217V81.2935Z" fill="#2F2E41"/>
<path d="M480.938 81.8161C478.056 81.8161 475.238 81.0025 472.841 79.4783C470.445 77.954 468.577 75.7876 467.474 73.2529C466.37 70.7181 466.082 67.929 466.644 65.2382C467.207 62.5473 468.595 60.0757 470.633 58.1357C472.671 56.1957 475.268 54.8745 478.095 54.3393C480.922 53.8041 483.853 54.0788 486.516 55.1287C489.179 56.1786 491.455 57.9566 493.056 60.2377C494.658 62.5189 495.513 65.2009 495.513 67.9444C495.513 71.6234 493.977 75.1517 491.244 77.7531C488.511 80.3546 484.804 81.8161 480.938 81.8161V81.8161ZM480.938 55.3939C478.33 55.3939 475.781 56.13 473.613 57.509C471.444 58.8881 469.754 60.8482 468.756 63.1415C467.758 65.4348 467.497 67.9583 468.006 70.3929C468.514 72.8275 469.77 75.0637 471.614 76.819C473.458 78.5742 475.808 79.7695 478.366 80.2538C480.924 80.7381 483.575 80.4895 485.984 79.5396C488.394 78.5897 490.453 76.981 491.902 74.9171C493.351 72.8532 494.125 70.4267 494.125 67.9444C494.125 64.6158 492.735 61.4235 490.262 59.0699C487.79 56.7162 484.436 55.3939 480.938 55.3939Z" fill="#2F2E41"/>
<path d="M390.426 370.182C395.472 370.182 399.562 366.289 399.562 361.487C399.562 356.684 395.472 352.791 390.426 352.791C385.38 352.791 381.29 356.684 381.29 361.487C381.29 366.289 385.38 370.182 390.426 370.182Z" fill="#3F3D56"/>
<path d="M614.767 370.182C619.813 370.182 623.903 366.289 623.903 361.487C623.903 356.684 619.813 352.791 614.767 352.791C609.721 352.791 605.631 356.684 605.631 361.487C605.631 366.289 609.721 370.182 614.767 370.182Z" fill="#E6E6E6"/>
<path d="M390.426 197.236C395.472 197.236 399.562 193.342 399.562 188.54C399.562 183.737 395.472 179.844 390.426 179.844C385.38 179.844 381.29 183.737 381.29 188.54C381.29 193.342 385.38 197.236 390.426 197.236Z" fill="#3F3D56"/>
<path d="M614.767 197.236C619.813 197.236 623.903 193.342 623.903 188.54C623.903 183.737 619.813 179.844 614.767 179.844C609.721 179.844 605.631 183.737 605.631 188.54C605.631 193.342 609.721 197.236 614.767 197.236Z" fill="#E6E6E6"/>
<path d="M406.731 125.393C414.397 125.393 420.611 119.478 420.611 112.182C420.611 104.886 414.397 98.9707 406.731 98.9707C399.065 98.9707 392.851 104.886 392.851 112.182C392.851 119.478 399.065 125.393 406.731 125.393Z" fill="#F2F2F2"/>
<path d="M548.744 41.5025C556.41 41.5025 562.624 35.5877 562.624 28.2914C562.624 20.9951 556.41 15.0803 548.744 15.0803C541.078 15.0803 534.864 20.9951 534.864 28.2914C534.864 35.5877 541.078 41.5025 548.744 41.5025Z" fill="#3F3D56"/>
<path d="M476.774 85.7793C484.44 85.7793 490.655 79.8645 490.655 72.5683C490.655 65.272 484.44 59.3572 476.774 59.3572C469.109 59.3572 462.894 65.272 462.894 72.5683C462.894 79.8645 469.109 85.7793 476.774 85.7793Z" fill="#0FB8A1"/>
</g>
<defs>
<clipPath id="clip0">
<rect width="790" height="600" fill="white"/>
</clipPath>
</defs>
</svg>
